<svg xmlns="http://www.w3.org/2000/svg" width="30" height="37" viewBox="0 0 30 37">
    <path d="M25.055 19.657A8.173 8.173 0 0 0 30 27.143a20.29 20.29 0 0 1-2.55 5.262c-1.536 2.254-3.129 4.5-5.64 4.546-2.467.046-3.26-1.469-6.081-1.469S12.028 36.905 9.693 37c-2.423.092-4.269-2.437-5.817-4.683-3.164-4.596-5.582-12.983-2.335-18.644a9.014 9.014 0 0 1 7.623-4.638c2.38-.046 4.626 1.608 6.081 1.608s4.183-1.988 7.053-1.7a8.6 8.6 0 0 1 6.739 3.67 8.37 8.37 0 0 0-3.982 7.04M20.419 5.908A8.172 8.172 0 0 0 22.335 0a8.247 8.247 0 0 0-5.427 2.8 7.764 7.764 0 0 0-1.954 5.723 6.822 6.822 0 0 0 5.466-2.62"/>
</svg>
