<svg xmlns="http://www.w3.org/2000/svg" width="641.097" height="492" viewBox="0 0 641.097 492">
    <defs>
        <linearGradient id="linear-gradient" x1=".079" x2="1" y1="-.306" y2=".973" gradientUnits="objectBoundingBox">
            <stop offset="0" stop-color="#b129e1"/>
            <stop offset=".473" stop-color="#7728c6"/>
            <stop offset="1" stop-color="#4f28f3"/>
        </linearGradient>
        <clipPath id="clip-path">
            <path id="사각형_2634" fill="#fff" stroke="#707070" d="M0 0H162.831V250.995H0z"/>
        </clipPath>
        <style>
            .cls-7{fill:#fff}.cls-3{fill:#e0e0e0}.cls-4{fill:#ebebeb}.cls-5{fill:#f5f5f5}.cls-6{fill:#fafafa}.cls-8{fill:#455a64}.cls-9{fill:#263238}.cls-10{fill:#9e59e9}.cls-11{fill:#393340}.cls-12{fill:#70706f}.cls-13{fill:#c9c9c9}.cls-14{fill:#bababa}.cls-15{fill:#dbdbdb}.cls-16{fill:#5e5e5c}.cls-17{fill:#a0a0a0}.cls-18{fill:#b1b5b5}.cls-19{fill:#cacece}.cls-20{opacity:.2}.cls-25{fill:#a3a3a3}.cls-27{fill:#008a60}.cls-28{fill:#00b981}.cls-29{fill:#009165}.cls-30{fill:#27ea84}.cls-32{fill:#919191}.cls-33{fill:#777}.cls-34{fill:#ffc2a4}.cls-35{fill:#5e6f77}.cls-37{fill:#7a402c}.cls-38{fill:#5d821c}.cls-39{fill:#eca57b}.cls-40{fill:#474154}.cls-41{fill:#3a3647}.cls-42{fill:#749923}.cls-44{fill:#514c60}.cls-46{fill:#ffd384}.cls-47{fill:#f8b948}.cls-49{fill:#b7b7b7}.cls-51{fill:#6a637a}
        </style>
    </defs>
    <g id="그룹_19822" transform="translate(-1268.902 -1708)">
        <path id="패스_15336" fill="url(#linear-gradient)" d="M266.709 627.974c.031.022 594.081-.072 594.081-.072 19.558-40.91 19.523-60.9 21.75-84.346 12.288-129.608-87.256-149.534-116.418-154.938-89.292-16.548-48.652-98.426-281.332-83.064-21.325 1.408-71.607 12.775-88.936 20.139-12.154 5.161-57.946 28.254-71.381 67.319a68.92 68.92 0 0 0-.983 41.7c15.143 54.67-24.336 51.527-53.184 77.581-38.506 34.767-34.478 91.631-3.597 115.681z" opacity="0.9" transform="translate(1026.414 1572.023)"/>
        <g id="그룹_7123" transform="translate(1395.352 1474.073)">
            <g id="Bitcoin_P2P-pana" transform="translate(46.398 233.939)">
                <g id="freepik--background-complete--inject-2" transform="translate(82.462)">
                    <path id="패스_15830" d="M57.034 17.96L43.069.624a1.659 1.659 0 0 0-2.847.444L37.956 6.98C13.424-.343 0 21.016 0 21.016l9.406 6.613c10.217-15.788 24.8-10.7 24.8-10.7l-1.978 5.131a1.658 1.658 0 0 0 1.83 2.23l22-3.69a1.708 1.708 0 0 0 .975-2.64z" class="cls-3" transform="matrix(.998 -.07 .07 .998 58.837 181.375)"/>
                    <path id="패스_15831" d="M48.515 0C38.965 13.781 26.5 10.867 23.9 10.072l2.8-6.681a.769.769 0 0 0-.855-1.059L.665 5.747a.76.76 0 0 0-.5 1.222L15.434 27.21a.77.77 0 0 0 1.317-.171l2.992-7.151c24 7.614 37.9-12.993 37.9-12.993z" class="cls-3" transform="rotate(-14 1109.283 -162.257)"/>
                    <path id="패스_19761" d="M30.095 0A30.12 30.12 0 1 1 0 30.11 30.135 30.135 0 0 1 30.095 0z" class="cls-3" transform="rotate(-64.54 57.013 36)"/>
                    <ellipse id="타원_265" cx="30.102" cy="30.126" class="cls-4" rx="30.102" ry="30.126" transform="rotate(-85.3 47.42 38.578)"/>
                    <path id="패스_19762" d="M22.942 0C35.616 0 45.893 10.021 45.9 22.376S35.628 44.743 22.954 44.74 0 34.718 0 22.364 10.268 0 22.942 0z" class="cls-5" transform="rotate(-19.78 123.452 -2.63)"/>
                    <path id="패스_15832" d="M188.466 133.386a22.948 22.948 0 0 1-29.116-13.209c.068.214.128.419.205.624a22.94 22.94 0 0 0 43.173-15.524c-.068-.205-.154-.4-.231-.607a22.927 22.927 0 0 1-14.032 28.716z" class="cls-6" transform="translate(-143.58 -57.535)"/>
                    <path id="패스_15833" d="M173.1 88.778a22.948 22.948 0 0 1 29.124 13.2l-.205-.624a22.944 22.944 0 0 0-43.182 15.524c.077.205.162.41.239.607A22.91 22.91 0 0 1 173.1 88.778z" class="cls-3" transform="translate(-143.309 -54.842)"/>
                    <path id="패스_15840" d="M190.467 123.224c.128.35-1.24 1.153-3.053 1.811s-3.378.854-3.506.547 1.24-1.153 3.053-1.8 3.378-.9 3.506-.558z" class="cls-6" transform="translate(-147.138 -60.214)"/>
                    <ellipse id="타원_267" cx="27.631" cy="27.609" class="cls-3" rx="27.631" ry="27.609" transform="rotate(-9.7 284.34 -775.669)"/>
                    <path id="패스_19763" d="M27.611 0A27.612 27.612 0 1 1 0 27.6 27.641 27.641 0 0 1 27.611 0z" class="cls-4" transform="rotate(-33.17 145.273 -187.211)"/>
                    <path id="패스_19764" d="M21.045 0C32.67 0 42.1 9.191 42.1 20.521s-9.419 20.513-21.045 20.51S0 31.841 0 20.51 9.419 0 21.045 0z" class="cls-5" transform="rotate(-19.78 195.94 -371.043)"/>
                    <path id="패스_15841" d="M336.374 133.911a21.049 21.049 0 0 1-26.7-12.115c.06.188.12.384.188.572a21.044 21.044 0 0 0 39.608-14.234c-.068-.2-.145-.376-.222-.564a21.03 21.03 0 0 1-12.874 26.341z" class="cls-6" transform="translate(-165.364 -57.957)"/>
                    <path id="패스_15842" d="M322.3 93a21.04 21.04 0 0 1 26.744 12.1c-.06-.188-.12-.376-.188-.564a21.044 21.044 0 0 0-39.608 14.234c.068.188.145.367.222.555A21.014 21.014 0 0 1 322.3 93z" class="cls-3" transform="translate(-165.122 -55.489)"/>
                    <path id="패스_15849" d="M338.21 124.582c.128.35-1.12 1.119-2.779 1.709s-3.1.8-3.232.453 1.12-1.111 2.779-1.709 3.112-.795 3.232-.453z" class="cls-6" transform="translate(-168.628 -60.41)"/>
                    <ellipse id="타원_270" cx="24.259" cy="24.239" class="cls-3" rx="24.259" ry="24.239" transform="translate(77.917 6.578)"/>
                    <ellipse id="타원_271" cx="24.225" cy="24.205" class="cls-4" rx="24.225" ry="24.205" transform="rotate(-7.481 85.615 -568.477)"/>
                    <path id="패스_19765" d="M18.007 0a18.267 18.267 0 0 1 18.019 18.49 18.24 18.24 0 0 1-18.008 18.479A18.267 18.267 0 0 1 0 18.479 18.24 18.24 0 0 1 18.007 0z" class="cls-5" transform="rotate(-66.18 67.076 -41.517)"/>
                    <path id="패스_15850" d="M249.94 96.934a18.44 18.44 0 0 1-9.64-23.854l-.231.47a18.477 18.477 0 0 0 33.81 14.917c.077-.162.137-.325.205-.487a18.485 18.485 0 0 1-24.148 8.954z" class="cls-6" transform="translate(-155.049 -52.934)"/>
                    <path id="패스_15851" d="M264.749 62.157a18.466 18.466 0 0 1 9.645 23.863c.077-.162.154-.316.222-.478a18.476 18.476 0 0 0-33.81-14.909c-.068.154-.128.325-.2.487a18.468 18.468 0 0 1 24.139-8.962z" class="cls-3" transform="translate(-155.356 -50.974)"/>
                    <g id="그룹_6783" transform="rotate(14 3.536 395.814)">
                        <g id="그룹_6522" transform="translate(2.211)">
                            <path id="패스_15504" d="M15.7 23.022a8.412 8.412 0 0 1-4.58 2.3v1.5a2.042 2.042 0 0 1-.6 1.531 2.123 2.123 0 0 1-1.546.582 2.121 2.121 0 0 1-1.546-.581 2.035 2.035 0 0 1-.6-1.531v-1.381a13.778 13.778 0 0 1-5.818-1.988 2.092 2.092 0 0 1-.78-.767A2.394 2.394 0 0 1 0 21.555a2.475 2.475 0 0 1 .537-1.592 1.583 1.583 0 0 1 1.271-.674 2.313 2.313 0 0 1 .735.122 5.491 5.491 0 0 1 .949.459A11.273 11.273 0 0 0 6 20.911a9.721 9.721 0 0 0 2.481.306 4.629 4.629 0 0 0 2.465-.536 1.781 1.781 0 0 0 .843-1.608 1.3 1.3 0 0 0-.5-1.055 3.9 3.9 0 0 0-1.257-.659q-.75-.243-2.189-.612a29.545 29.545 0 0 1-3.768-1.177 6.484 6.484 0 0 1-2.542-1.87 5.121 5.121 0 0 1-1.071-3.412 5.981 5.981 0 0 1 1.716-4.255 8.418 8.418 0 0 1 4.534-2.389V2.113A2.025 2.025 0 0 1 7.325.6 2.108 2.108 0 0 1 8.856 0 2.116 2.116 0 0 1 10.4.583a2.039 2.039 0 0 1 .6 1.529v1.439a13 13 0 0 1 4.962 1.928 2.248 2.248 0 0 1 .78.812 2.34 2.34 0 0 1 .23 1.086 2.437 2.437 0 0 1-.552 1.592 1.624 1.624 0 0 1-1.287.674 2.013 2.013 0 0 1-.7-.122 8.364 8.364 0 0 1-.98-.459c-.143-.08-.459-.249-.949-.5a7.912 7.912 0 0 0-1.578-.612 6.78 6.78 0 0 0-1.791-.23 3.836 3.836 0 0 0-2.236.6 1.863 1.863 0 0 0-.863 1.6 1.567 1.567 0 0 0 .98 1.469 15 15 0 0 0 3.094.979 26.176 26.176 0 0 1 3.721 1.1 6.188 6.188 0 0 1 2.511 1.867A5.282 5.282 0 0 1 17.4 18.8a5.84 5.84 0 0 1-1.7 4.222z" class="cls-3"/>
                        </g>
                        <g id="그룹_6780" transform="translate(0 .002)">
                            <path id="패스_15504-2" d="M15.741 23.021a8.443 8.443 0 0 1-4.593 2.3v1.5a2.039 2.039 0 0 1-.6 1.531A2.132 2.132 0 0 1 9 28.931a2.13 2.13 0 0 1-1.55-.581 2.032 2.032 0 0 1-.6-1.531v-1.378a13.84 13.84 0 0 1-5.835-1.987 2.094 2.094 0 0 1-.782-.767A2.389 2.389 0 0 1 0 21.554a2.471 2.471 0 0 1 .539-1.592 1.589 1.589 0 0 1 1.274-.674 2.325 2.325 0 0 1 .737.122 5.512 5.512 0 0 1 .952.459A11.321 11.321 0 0 0 6.02 20.91a9.772 9.772 0 0 0 2.488.306 4.652 4.652 0 0 0 2.472-.536 1.78 1.78 0 0 0 .846-1.608 1.3 1.3 0 0 0-.506-1.055 3.911 3.911 0 0 0-1.261-.659q-.752-.243-2.2-.612a29.683 29.683 0 0 1-3.777-1.177A6.5 6.5 0 0 1 1.537 13.7a5.112 5.112 0 0 1-1.074-3.412 5.973 5.973 0 0 1 1.721-4.256A8.448 8.448 0 0 1 6.73 3.643v-1.53A2.022 2.022 0 0 1 7.344.6 2.117 2.117 0 0 1 8.88 0a2.125 2.125 0 0 1 1.55.583 2.036 2.036 0 0 1 .6 1.529v1.439A13.059 13.059 0 0 1 16 5.479a2.251 2.251 0 0 1 .782.812 2.334 2.334 0 0 1 .231 1.086 2.432 2.432 0 0 1-.553 1.592 1.63 1.63 0 0 1-1.29.674 2.023 2.023 0 0 1-.706-.122 8.4 8.4 0 0 1-.983-.459c-.143-.08-.461-.249-.952-.5a7.947 7.947 0 0 0-1.582-.612 6.816 6.816 0 0 0-1.8-.23 3.854 3.854 0 0 0-2.242.6 1.861 1.861 0 0 0-.86 1.607 1.567 1.567 0 0 0 .983 1.469 15.07 15.07 0 0 0 3.1.979 26.3 26.3 0 0 1 3.731 1.1 6.2 6.2 0 0 1 2.518 1.867 5.272 5.272 0 0 1 1.06 3.459 5.831 5.831 0 0 1-1.696 4.22z" class="cls-7"/>
                        </g>
                        <g id="그룹_6781" transform="translate(.592 .001)">
                            <path id="패스_15504-3" d="M15.7 23.021a8.41 8.41 0 0 1-4.579 2.3v1.5a2.042 2.042 0 0 1-.6 1.531 2.122 2.122 0 0 1-1.546.582 2.121 2.121 0 0 1-1.546-.581 2.035 2.035 0 0 1-.6-1.531v-1.381a13.773 13.773 0 0 1-5.819-1.987 2.091 2.091 0 0 1-.78-.767A2.4 2.4 0 0 1 0 21.554a2.475 2.475 0 0 1 .537-1.592 1.583 1.583 0 0 1 1.27-.674 2.312 2.312 0 0 1 .735.122 5.489 5.489 0 0 1 .949.459A11.27 11.27 0 0 0 6 20.91a9.717 9.717 0 0 0 2.48.306 4.628 4.628 0 0 0 2.465-.536 1.781 1.781 0 0 0 .843-1.608 1.3 1.3 0 0 0-.5-1.055 3.9 3.9 0 0 0-1.257-.659q-.75-.243-2.189-.612a29.534 29.534 0 0 1-3.767-1.177A6.483 6.483 0 0 1 1.533 13.7a5.122 5.122 0 0 1-1.071-3.412 5.982 5.982 0 0 1 1.715-4.256A8.416 8.416 0 0 1 6.71 3.644V2.113A2.025 2.025 0 0 1 7.323.6 2.107 2.107 0 0 1 8.854 0 2.116 2.116 0 0 1 10.4.583a2.039 2.039 0 0 1 .6 1.529v1.439a13 13 0 0 1 4.961 1.928 2.248 2.248 0 0 1 .78.812 2.34 2.34 0 0 1 .23 1.086 2.437 2.437 0 0 1-.552 1.592 1.624 1.624 0 0 1-1.286.674 2.012 2.012 0 0 1-.7-.122 8.362 8.362 0 0 1-.98-.459c-.143-.08-.459-.249-.949-.5a7.91 7.91 0 0 0-1.578-.612 6.777 6.777 0 0 0-1.791-.23 3.834 3.834 0 0 0-2.236.6 1.863 1.863 0 0 0-.864 1.6 1.567 1.567 0 0 0 .98 1.469 15 15 0 0 0 3.093.979 26.167 26.167 0 0 1 3.72 1.1 6.186 6.186 0 0 1 2.511 1.867 5.282 5.282 0 0 1 1.056 3.465 5.84 5.84 0 0 1-1.695 4.221z" class="cls-4"/>
                        </g>
                    </g>
                    <g id="그룹_6784" transform="rotate(-8 300.129 -140.344)">
                        <g id="그룹_6522-2" transform="translate(2.504 .001)">
                            <path id="패스_15504-4" d="M17.891 26.281a9.575 9.575 0 0 1-5.219 2.62v1.712a2.331 2.331 0 0 1-.681 1.747 2.416 2.416 0 0 1-1.762.664 2.417 2.417 0 0 1-1.762-.664 2.326 2.326 0 0 1-.682-1.747v-1.572a15.693 15.693 0 0 1-6.633-2.271 2.387 2.387 0 0 1-.889-.875A2.737 2.737 0 0 1 0 24.6a2.827 2.827 0 0 1 .612-1.817 1.8 1.8 0 0 1 1.448-.769 2.632 2.632 0 0 1 .838.14 6.257 6.257 0 0 1 1.082.524 12.846 12.846 0 0 0 2.863 1.189 11.062 11.062 0 0 0 2.828.35 5.267 5.267 0 0 0 2.809-.61 2.033 2.033 0 0 0 .961-1.835 1.488 1.488 0 0 0-.575-1.2 4.441 4.441 0 0 0-1.433-.752q-.855-.277-2.5-.7a33.637 33.637 0 0 1-4.294-1.345 7.4 7.4 0 0 1-2.9-2.132 5.855 5.855 0 0 1-1.222-3.9 6.829 6.829 0 0 1 1.959-4.859 9.582 9.582 0 0 1 5.166-2.726V2.411A2.312 2.312 0 0 1 8.34.682 2.4 2.4 0 0 1 10.086 0a2.411 2.411 0 0 1 1.762.666 2.331 2.331 0 0 1 .682 1.746v1.642a14.812 14.812 0 0 1 5.655 2.2 2.567 2.567 0 0 1 .889.927 2.675 2.675 0 0 1 .263 1.24 2.783 2.783 0 0 1-.628 1.817 1.849 1.849 0 0 1-1.466.769 2.292 2.292 0 0 1-.8-.14 9.523 9.523 0 0 1-1.117-.524c-.163-.091-.524-.285-1.082-.576a9.012 9.012 0 0 0-1.8-.7 7.717 7.717 0 0 0-2.044-.26 4.364 4.364 0 0 0-2.548.682 2.126 2.126 0 0 0-.977 1.834A1.79 1.79 0 0 0 7.993 13a17.087 17.087 0 0 0 3.526 1.119 29.806 29.806 0 0 1 4.241 1.259 7.058 7.058 0 0 1 2.863 2.132 6.039 6.039 0 0 1 1.206 3.949 6.668 6.668 0 0 1-1.938 4.822z" class="cls-3"/>
                        </g>
                        <g id="그룹_6780-2">
                            <path id="패스_15504-5" d="M17.928 26.282A9.6 9.6 0 0 1 12.7 28.9v1.712a2.329 2.329 0 0 1-.683 1.747 2.423 2.423 0 0 1-1.766.664 2.424 2.424 0 0 1-1.766-.664 2.324 2.324 0 0 1-.685-1.745v-1.572a15.746 15.746 0 0 1-6.646-2.271 2.39 2.39 0 0 1-.891-.871A2.733 2.733 0 0 1 0 24.6a2.824 2.824 0 0 1 .613-1.817 1.807 1.807 0 0 1 1.451-.769 2.642 2.642 0 0 1 .839.14 6.275 6.275 0 0 1 1.084.524 12.887 12.887 0 0 0 2.868 1.189 11.106 11.106 0 0 0 2.833.35 5.286 5.286 0 0 0 2.815-.61 2.032 2.032 0 0 0 .963-1.835 1.487 1.487 0 0 0-.576-1.2 4.454 4.454 0 0 0-1.436-.752q-.857-.277-2.5-.7a33.754 33.754 0 0 1-4.3-1.345 7.411 7.411 0 0 1-2.9-2.132 5.848 5.848 0 0 1-1.225-3.9 6.822 6.822 0 0 1 1.953-4.859 9.608 9.608 0 0 1 5.176-2.725V2.411a2.309 2.309 0 0 1 .7-1.729A2.406 2.406 0 0 1 10.106 0a2.419 2.419 0 0 1 1.766.666 2.328 2.328 0 0 1 .683 1.746v1.642a14.861 14.861 0 0 1 5.667 2.2 2.569 2.569 0 0 1 .891.927 2.671 2.671 0 0 1 .263 1.24 2.779 2.779 0 0 1-.629 1.817 1.854 1.854 0 0 1-1.469.769 2.3 2.3 0 0 1-.8-.14 9.552 9.552 0 0 1-1.119-.524c-.163-.091-.525-.285-1.084-.576a9.041 9.041 0 0 0-1.8-.7 7.748 7.748 0 0 0-2.045-.263 4.379 4.379 0 0 0-2.553.682 2.125 2.125 0 0 0-.979 1.834A1.79 1.79 0 0 0 8.009 13a17.146 17.146 0 0 0 3.533 1.119 29.912 29.912 0 0 1 4.249 1.259 7.071 7.071 0 0 1 2.869 2.132 6.03 6.03 0 0 1 1.208 3.949 6.661 6.661 0 0 1-1.94 4.823z" class="cls-7"/>
                        </g>
                        <g id="그룹_6781-2" transform="translate(.659)">
                            <path id="패스_15504-6" d="M17.889 26.282a9.573 9.573 0 0 1-5.219 2.62v1.712a2.331 2.331 0 0 1-.681 1.747 2.415 2.415 0 0 1-1.762.664 2.416 2.416 0 0 1-1.762-.664 2.326 2.326 0 0 1-.682-1.747v-1.573a15.69 15.69 0 0 1-6.632-2.271 2.387 2.387 0 0 1-.888-.87A2.738 2.738 0 0 1 0 24.6a2.827 2.827 0 0 1 .612-1.817 1.8 1.8 0 0 1 1.448-.769 2.631 2.631 0 0 1 .838.14 6.256 6.256 0 0 1 1.082.524 12.844 12.844 0 0 0 2.862 1.189 11.06 11.06 0 0 0 2.827.35 5.266 5.266 0 0 0 2.809-.61 2.033 2.033 0 0 0 .96-1.835 1.488 1.488 0 0 0-.575-1.2 4.441 4.441 0 0 0-1.433-.752q-.855-.277-2.495-.7a33.629 33.629 0 0 1-4.293-1.345 7.4 7.4 0 0 1-2.9-2.132 5.856 5.856 0 0 1-1.222-3.9 6.83 6.83 0 0 1 1.956-4.859 9.581 9.581 0 0 1 5.166-2.725V2.411a2.312 2.312 0 0 1 .7-1.729A2.4 2.4 0 0 1 10.084 0a2.41 2.41 0 0 1 1.762.666 2.331 2.331 0 0 1 .682 1.746v1.642a14.81 14.81 0 0 1 5.655 2.2 2.567 2.567 0 0 1 .889.927 2.676 2.676 0 0 1 .263 1.24 2.783 2.783 0 0 1-.628 1.817 1.848 1.848 0 0 1-1.466.769 2.291 2.291 0 0 1-.8-.14 9.521 9.521 0 0 1-1.117-.524c-.163-.091-.524-.285-1.082-.576a9.01 9.01 0 0 0-1.8-.7 7.716 7.716 0 0 0-2.042-.26 4.363 4.363 0 0 0-2.548.682 2.126 2.126 0 0 0-.977 1.834A1.79 1.79 0 0 0 7.992 13a17.083 17.083 0 0 0 3.525 1.119 29.8 29.8 0 0 1 4.24 1.259 7.057 7.057 0 0 1 2.863 2.132 6.039 6.039 0 0 1 1.205 3.949 6.669 6.669 0 0 1-1.936 4.823z" class="cls-4"/>
                        </g>
                    </g>
                    <g id="그룹_6785" transform="rotate(-8 375.778 -1064.142)">
                        <g id="그룹_6522-3" transform="translate(2.203)">
                            <path id="패스_15504-7" d="M15.7 23.05a8.4 8.4 0 0 1-4.581 2.3v1.5a2.044 2.044 0 0 1-.6 1.532 2.121 2.121 0 0 1-1.546.582 2.122 2.122 0 0 1-1.546-.583 2.039 2.039 0 0 1-.6-1.533V25.47a13.779 13.779 0 0 1-5.821-1.991 2.1 2.1 0 0 1-.781-.768A2.4 2.4 0 0 1 0 21.577a2.478 2.478 0 0 1 .537-1.594 1.582 1.582 0 0 1 1.271-.674 2.312 2.312 0 0 1 .735.123 5.493 5.493 0 0 1 .95.46A11.277 11.277 0 0 0 6 20.934a9.716 9.716 0 0 0 2.482.307 4.625 4.625 0 0 0 2.465-.535 1.782 1.782 0 0 0 .843-1.61 1.3 1.3 0 0 0-.5-1.057 3.9 3.9 0 0 0-1.258-.66q-.751-.243-2.19-.613a29.545 29.545 0 0 1-3.768-1.18 6.491 6.491 0 0 1-2.543-1.87A5.133 5.133 0 0 1 .458 10.3a5.988 5.988 0 0 1 1.715-4.26 8.411 8.411 0 0 1 4.534-2.39V2.115A2.027 2.027 0 0 1 7.32.6 2.106 2.106 0 0 1 8.851 0 2.117 2.117 0 0 1 10.4.584a2.043 2.043 0 0 1 .6 1.531v1.441a13.006 13.006 0 0 1 4.96 1.931 2.252 2.252 0 0 1 .781.813 2.345 2.345 0 0 1 .231 1.087 2.44 2.44 0 0 1-.551 1.594 1.623 1.623 0 0 1-1.287.674 2.012 2.012 0 0 1-.7-.123 8.368 8.368 0 0 1-.98-.46c-.143-.08-.46-.25-.95-.505a7.914 7.914 0 0 0-1.579-.613 6.777 6.777 0 0 0-1.792-.231 3.832 3.832 0 0 0-2.236.6 1.864 1.864 0 0 0-.863 1.607 1.57 1.57 0 0 0 .981 1.47 15 15 0 0 0 3.094.981 26.176 26.176 0 0 1 3.722 1.1 6.2 6.2 0 0 1 2.512 1.87A5.294 5.294 0 0 1 17.4 18.82a5.846 5.846 0 0 1-1.7 4.23z" class="cls-3"/>
                        </g>
                        <g id="그룹_6780-3">
                            <path id="패스_15504-8" d="M15.738 23.05a8.431 8.431 0 0 1-4.591 2.3v1.5a2.041 2.041 0 0 1-.6 1.532A2.128 2.128 0 0 1 9 28.965a2.129 2.129 0 0 1-1.55-.583 2.037 2.037 0 0 1-.6-1.533V25.47a13.832 13.832 0 0 1-5.835-1.992 2.1 2.1 0 0 1-.782-.768A2.4 2.4 0 0 1 0 21.577a2.475 2.475 0 0 1 .538-1.594 1.587 1.587 0 0 1 1.274-.674 2.322 2.322 0 0 1 .737.123 5.511 5.511 0 0 1 .952.46 11.317 11.317 0 0 0 2.518 1.042 9.759 9.759 0 0 0 2.487.307 4.644 4.644 0 0 0 2.471-.535 1.781 1.781 0 0 0 .845-1.61 1.3 1.3 0 0 0-.506-1.057 3.911 3.911 0 0 0-1.261-.66q-.752-.243-2.195-.613a29.663 29.663 0 0 1-3.777-1.18 6.505 6.505 0 0 1-2.549-1.87A5.125 5.125 0 0 1 .459 10.3a5.981 5.981 0 0 1 1.719-4.26 8.437 8.437 0 0 1 4.544-2.39V2.115A2.024 2.024 0 0 1 7.337.6 2.113 2.113 0 0 1 8.872 0a2.124 2.124 0 0 1 1.55.584 2.041 2.041 0 0 1 .6 1.531v1.441A13.054 13.054 0 0 1 16 5.487a2.254 2.254 0 0 1 .782.813 2.341 2.341 0 0 1 .231 1.087 2.436 2.436 0 0 1-.553 1.594 1.628 1.628 0 0 1-1.29.674 2.021 2.021 0 0 1-.706-.123 8.4 8.4 0 0 1-.983-.46c-.143-.08-.461-.25-.952-.505a7.944 7.944 0 0 0-1.582-.613 6.807 6.807 0 0 0-1.8-.231 3.847 3.847 0 0 0-2.242.6 1.863 1.863 0 0 0-.86 1.608 1.57 1.57 0 0 0 .986 1.469 15.06 15.06 0 0 0 3.1.981 26.281 26.281 0 0 1 3.73 1.1 6.208 6.208 0 0 1 2.518 1.87 5.286 5.286 0 0 1 1.06 3.464 5.839 5.839 0 0 1-1.701 4.235z" class="cls-7"/>
                        </g>
                        <g id="그룹_6781-3" transform="translate(.584)">
                            <path id="패스_15504-9" d="M15.7 23.05a8.4 8.4 0 0 1-4.58 2.3v1.5a2.044 2.044 0 0 1-.6 1.532 2.12 2.12 0 0 1-1.546.582 2.121 2.121 0 0 1-1.546-.583 2.039 2.039 0 0 1-.6-1.533V25.47a13.776 13.776 0 0 1-5.82-1.992 2.1 2.1 0 0 1-.78-.768A2.4 2.4 0 0 1 0 21.577a2.479 2.479 0 0 1 .537-1.594 1.582 1.582 0 0 1 1.27-.674 2.311 2.311 0 0 1 .735.123 5.492 5.492 0 0 1 .95.46A11.274 11.274 0 0 0 6 20.934a9.712 9.712 0 0 0 2.481.307 4.623 4.623 0 0 0 2.465-.535 1.783 1.783 0 0 0 .843-1.61 1.3 1.3 0 0 0-.5-1.057 3.9 3.9 0 0 0-1.257-.66q-.75-.243-2.189-.613a29.537 29.537 0 0 1-3.768-1.18 6.49 6.49 0 0 1-2.543-1.87A5.134 5.134 0 0 1 .458 10.3a5.988 5.988 0 0 1 1.715-4.26 8.409 8.409 0 0 1 4.533-2.39V2.115A2.027 2.027 0 0 1 7.318.6 2.105 2.105 0 0 1 8.85 0a2.116 2.116 0 0 1 1.55.584 2.044 2.044 0 0 1 .6 1.531v1.441a13 13 0 0 1 4.962 1.932 2.252 2.252 0 0 1 .78.813 2.346 2.346 0 0 1 .231 1.087 2.44 2.44 0 0 1-.551 1.594 1.623 1.623 0 0 1-1.286.674 2.012 2.012 0 0 1-.7-.123 8.366 8.366 0 0 1-.98-.46c-.143-.08-.46-.25-.95-.505a7.912 7.912 0 0 0-1.578-.613 6.774 6.774 0 0 0-1.791-.231 3.831 3.831 0 0 0-2.236.6 1.864 1.864 0 0 0-.857 1.608 1.57 1.57 0 0 0 .98 1.471 15 15 0 0 0 3.094.981 26.168 26.168 0 0 1 3.721 1.1 6.194 6.194 0 0 1 2.512 1.87A5.3 5.3 0 0 1 17.4 18.82a5.847 5.847 0 0 1-1.7 4.23z" class="cls-4"/>
                        </g>
                    </g>
                </g>
                <g id="freepik--Plants--inject-2" transform="translate(131.025 110.563)">
                    <g id="그룹_7109" transform="translate(58.61 183.501)">
                        <path id="패스_15859" d="M255.14 382.448a6.7 6.7 0 0 1 5.223-.351 11.8 11.8 0 0 1 4.491 2.871c2.5 2.413 4.063 6.086 4.955 9.432-3.777.761-7.691-1.409-9.6-2.627-3.028-1.938-7.328-7.263-5.068-9.325" class="cls-8" transform="translate(-254.508 -381.726)"/>
                        <path id="패스_15860" d="M289.115 396.537a5.682 5.682 0 0 1-3.171-4.755 7.528 7.528 0 0 1 2.022-5.486 3.165 3.165 0 0 1 2.379-1.266 2.438 2.438 0 0 1 1.981 1.474 4.924 4.924 0 0 1 .309 2.544c-.28 2.972-1.1 5.765-3.51 7.495" class="cls-8" transform="translate(-267.241 -383.066)"/>
                        <path id="패스_15861" d="M297.1 409.189a3.563 3.563 0 0 1-.5-.511l-1.3-1.444a20.056 20.056 0 0 1-3.646-5.3 12.222 12.222 0 0 1-1.017-6.318 8.416 8.416 0 0 1 .464-1.9c.077-.214.161-.374.208-.487a.673.673 0 0 1 .1-.16 11.392 11.392 0 0 0 .482 8.773 21.443 21.443 0 0 0 3.569 5.272l1.243 1.5a4.462 4.462 0 0 1 .397.575z" class="cls-9" transform="translate(-269.117 -386.327)"/>
                        <path id="패스_15862" d="M261.68 389.28a1.513 1.513 0 0 1 .268.16l.732.5c.637.44 1.553 1.088 2.677 1.89 2.242 1.617 5.312 3.887 8.643 6.472s6.3 4.993 8.417 6.764c1.059.892 1.915 1.611 2.5 2.122l.666.594a1.468 1.468 0 0 1 .22.22 1.79 1.79 0 0 1-.256-.178l-.7-.553c-.625-.511-1.487-1.189-2.546-2.056-2.147-1.741-5.128-4.125-8.459-6.71s-6.377-4.874-8.6-6.538l-2.623-1.949c-.292-.22-.529-.4-.708-.541a1.431 1.431 0 0 1-.231-.197z" class="cls-9" transform="translate(-257.414 -384.79)"/>
                        <path id="패스_15863" d="M279.334 412.17a13.329 13.329 0 0 0-12.182-.184c-.958.481-1.975 1.3-1.886 2.377s1.22 1.724 2.255 2.027a11.4 11.4 0 0 0 12-3.988" class="cls-8" transform="translate(-258.864 -393.44)"/>
                        <path id="패스_15864" d="M273.28 414.489a3.687 3.687 0 0 1 .595-.321 6.093 6.093 0 0 1 .72-.327 10.006 10.006 0 0 1 .982-.363 11.944 11.944 0 0 1 1.225-.339 13.221 13.221 0 0 1 1.434-.256 14.5 14.5 0 0 1 3.337 0 14.351 14.351 0 0 1 3.248.79 12.616 12.616 0 0 1 1.333.594 10.422 10.422 0 0 1 1.1.624 9.958 9.958 0 0 1 .857.594 6.357 6.357 0 0 1 .595.5 3.184 3.184 0 0 1 .482.47c-.036.042-.732-.594-2.046-1.414a11.621 11.621 0 0 0-1.1-.594 13.762 13.762 0 0 0-1.321-.565 15.065 15.065 0 0 0-3.194-.755 15.559 15.559 0 0 0-3.283 0c-.5.065-.976.131-1.416.232q-.6.122-1.19.3c-1.484.441-2.338.884-2.358.83z" class="cls-9" transform="translate(-262.113 -394.326)"/>
                    </g>
                    <g id="그룹_7110">
                        <path id="패스_15865" d="M217.511 191.069a12.33 12.33 0 0 1 6.191 4.562 6.328 6.328 0 0 1 1.582 3.811 2.69 2.69 0 0 1-2.565 2.76 3.626 3.626 0 0 1-2.138-1.2c-1.454-1.4-2.839-3.2-4.84-3.417-1.146-.128-2.377.29-3.42-.214a2.562 2.562 0 0 1-1.206-2.888 4.452 4.452 0 0 1 2.009-2.563 5.022 5.022 0 0 1 4.387-.854z" class="cls-10" transform="translate(-199.631 -156.829)"/>
                        <path id="패스_15866" d="M222.324 175.959c-.359 2.452 2.112 3.853 3.891 3.828a10.269 10.269 0 0 0 4.934-1.854c3.5-2.068 7.14-4.272 9.261-7.689a6.619 6.619 0 0 0 1.129-3.418 3.485 3.485 0 0 0-1.642-3.059c-1.265-.692-2.83-.29-4.173.222a28.5 28.5 0 0 0-10.475 6.972 9.943 9.943 0 0 0-2.925 5.039" class="cls-10" transform="translate(-201.263 -152.826)"/>
                        <path id="패스_15867" d="M215.817 173.6a7.4 7.4 0 0 0 5.5-4.144 13.046 13.046 0 0 0 1.077-7 21.578 21.578 0 0 0-2.317-8.023 7.6 7.6 0 0 0-1.975-2.623 3.423 3.423 0 0 0-3.1-.666c-1.539.53-2.215 2.3-2.625 3.879a53.654 53.654 0 0 0-1.5 8.475 12.9 12.9 0 0 0 .718 6.835c1 2.119 2.7 3.554 4.566 3.247" class="cls-10" transform="translate(-199.588 -151.024)"/>
                        <path id="패스_15868" d="M197.7 202.543a4.632 4.632 0 0 0 .727-.581l1.907-1.658a33.971 33.971 0 0 1 2.942-2.29 28.165 28.165 0 0 1 3.959-2.247 15.913 15.913 0 0 1 4.318-1.333 8.266 8.266 0 0 1 3.651.231 7.766 7.766 0 0 1 2.223 1.085 4.49 4.49 0 0 0 .761.53 4.777 4.777 0 0 0-.667-.649 7.142 7.142 0 0 0-2.24-1.222 8.207 8.207 0 0 0-3.771-.325 15.4 15.4 0 0 0-4.429 1.341 26.844 26.844 0 0 0-4.01 2.3 31.892 31.892 0 0 0-2.916 2.375c-.8.718-1.411 1.333-1.83 1.752a4.543 4.543 0 0 0-.625.691z" class="cls-9" transform="translate(-197.7 -157.282)"/>
                        <path id="패스_15869" d="M199.4 197.932a1.984 1.984 0 0 0 .316-.29 11.392 11.392 0 0 1 .855-.854c.727-.777 1.787-1.888 3.13-3.229 2.668-2.691 5.7-5.425 10.116-9.176 4.147-3.52 9.047-7.544 12.476-9.936.77-.555 1.479-1.034 2.1-1.452s1.163-.786 1.616-1.059l1.018-.675a1.984 1.984 0 0 0 .342-.248 1.444 1.444 0 0 0-.376.188l-1.069.607c-.462.256-1.009.607-1.642 1.008s-1.368.854-2.146 1.41a138.572 138.572 0 0 0-11.775 9.031c-4.421 3.759-8.234 7.373-10.86 10.116-1.317 1.367-2.343 2.512-3.036 3.315l-.787.94a1.712 1.712 0 0 0-.278.304z" class="cls-9" transform="translate(-197.946 -153.934)"/>
                        <path id="패스_15870" d="M207.55 188.84a8.874 8.874 0 0 0 .855-.94 34.362 34.362 0 0 0 2.086-2.777 44.423 44.423 0 0 0 2.642-4.434 41.391 41.391 0 0 0 2.565-5.784 31.778 31.778 0 0 0 2.112-11.244 15.141 15.141 0 0 0-.128-1.982 2.65 2.65 0 0 0-.094-.854 4.621 4.621 0 0 1-.137-.666 8.989 8.989 0 0 0-.308-1.239 38.22 38.22 0 0 1 .4 4.7 33.3 33.3 0 0 1-2.206 11.107 46.851 46.851 0 0 1-2.514 5.75 50.409 50.409 0 0 1-2.565 4.443c-.8 1.23-1.488 2.187-1.984 2.837a7.694 7.694 0 0 0-.724 1.083z" class="cls-9" transform="translate(-199.127 -152.174)"/>
                    </g>
                </g>
                <g id="freepik--device-2--inject-2" transform="translate(215.433 59.566)">
                    <path id="패스_15871" d="M412.633 400.055l-95.367-.444a20.761 20.761 0 0 1-20.676-20.847l1.01-238.877a20.77 20.77 0 0 1 20.873-20.667l95.359.436a20.77 20.77 0 0 1 20.674 20.844L433.5 379.388a20.762 20.762 0 0 1-20.864 20.668z" class="cls-11" transform="translate(-296.59 -119.22)"/>
                    <path id="패스_15872" d="M414.768 129.76l-18.487-.085a4.581 4.581 0 0 0-4.506 4.665v3.349a4.59 4.59 0 0 1-4.506 4.673l-36.042-.171a4.6 4.6 0 0 1-4.472-4.708v-3.349a4.6 4.6 0 0 0-4.472-4.708h-6.5l-16.183-.076a14.531 14.531 0 0 0-14.613 14.482L304 376.958a14.53 14.53 0 0 0 14.477 14.593l95.171.444a14.531 14.531 0 0 0 14.613-14.482l.992-233.161a14.531 14.531 0 0 0-14.485-14.593z" class="cls-6" transform="translate(-298.049 -120.695)"/>
                    <ellipse id="타원_273" cx="33.394" cy="33.368" class="cls-3" rx="33.394" ry="33.368" transform="rotate(-7.7 294.666 -78.985)"/>
                    <ellipse id="타원_274" cx="33.394" cy="33.368" class="cls-4" rx="33.394" ry="33.368" transform="rotate(-8.22 261.532 -92.279)"/>
                    <path id="패스_19766" d="M24.8 0c13.7 0 24.815 11.392 24.819 25.436s-11.1 25.426-24.8 25.422S0 39.466 0 25.422 11.1 0 24.8 0z" class="cls-5" transform="rotate(-21.84 140.53 -30.61)"/>
                    <path id="패스_15873" d="M332.16 199.837a25.393 25.393 0 0 1 13.476-32.757l-.684.248a25.419 25.419 0 1 0 18.933 47.182l.666-.293a25.428 25.428 0 0 1-32.391-14.38z" class="cls-6" transform="translate(-301.132 -126.189)"/>
                    <path id="패스_15874" d="M380.85 181.1a25.393 25.393 0 0 1-13.476 32.757l.676-.248a25.416 25.416 0 1 0-18.923-47.179l-.667.29a25.437 25.437 0 0 1 32.391 14.38z" class="cls-3" transform="translate(-303.956 -125.828)"/>
                    <path id="패스_15877" d="M375.094 183.891c-.214.085-.992-1.3-2-3.5l.718.308c-1.06.478-2.326 1.034-3.7 1.6l-.607.248-.257-.615-.4-1c-.7-1.76-1.317-3.418-1.8-4.785l.718.308c-2.283.795-3.831 1.2-3.916.983s1.308-1 3.506-2.008l.479-.214.239.521c.607 1.324 1.308 2.939 2.009 4.7.137.342.265.683.393 1l-.855-.367c1.394-.538 2.685-1.017 3.788-1.393l.547-.188.171.5c.753 2.278 1.155 3.816.967 3.902z" class="cls-6" transform="translate(-306.185 -127.373)"/>
                    <path id="패스_15878" d="M379.662 192.362c-.342.137-1.026-.76-1.522-2s-.624-2.358-.282-2.495 1.026.76 1.522 2 .62 2.384.282 2.495z" class="cls-6" transform="translate(-308.188 -129.214)"/>
                    <path id="패스_15880" d="M361.6 196.247c-.342.137-1.265-1.358-2.061-3.341s-1.154-3.691-.812-3.828 1.257 1.359 2.052 3.332 1.164 3.7.821 3.837z" class="cls-6" transform="translate(-305.425 -129.391)"/>
                    <g id="그룹_6787" transform="rotate(-18.01 173.491 -83.485)">
                        <g id="그룹_6522-4" transform="translate(3.177 .003)">
                            <path id="패스_15504-10" d="M22.589 33.193A12.084 12.084 0 0 1 16 36.5v2.163a2.944 2.944 0 0 1-.86 2.207 3.048 3.048 0 0 1-2.224.838 3.051 3.051 0 0 1-2.225-.839 2.939 2.939 0 0 1-.861-2.207v-1.985a19.814 19.814 0 0 1-8.375-2.869A3.016 3.016 0 0 1 .332 32.7 3.459 3.459 0 0 1 0 31.069a3.571 3.571 0 0 1 .772-2.295A2.275 2.275 0 0 1 2.6 27.8a3.325 3.325 0 0 1 1.058.177 7.91 7.91 0 0 1 1.366.662 16.214 16.214 0 0 0 3.614 1.5 13.963 13.963 0 0 0 3.57.442 6.646 6.646 0 0 0 3.547-.771 2.567 2.567 0 0 0 1.212-2.31 1.88 1.88 0 0 0-.727-1.522 5.611 5.611 0 0 0-1.809-.95q-1.08-.35-3.15-.883a42.486 42.486 0 0 1-5.421-1.7A9.341 9.341 0 0 1 2.2 19.75a7.4 7.4 0 0 1-1.543-4.923 8.624 8.624 0 0 1 2.467-6.134 12.093 12.093 0 0 1 6.522-3.442V3.045a2.92 2.92 0 0 1 .88-2.184A3.027 3.027 0 0 1 12.73 0a3.044 3.044 0 0 1 2.225.841 2.945 2.945 0 0 1 .861 2.2v2.08a18.7 18.7 0 0 1 7.14 2.779 3.243 3.243 0 0 1 1.124 1.174 3.381 3.381 0 0 1 .332 1.566 3.514 3.514 0 0 1-.793 2.295 2.333 2.333 0 0 1-1.851.971 2.892 2.892 0 0 1-1.014-.177 12.027 12.027 0 0 1-1.41-.663c-.206-.116-.661-.36-1.366-.727a11.378 11.378 0 0 0-2.271-.883 9.739 9.739 0 0 0-2.577-.333 5.507 5.507 0 0 0-3.217.861A2.684 2.684 0 0 0 8.678 14.3a2.261 2.261 0 0 0 1.411 2.119 21.576 21.576 0 0 0 4.452 1.413 37.648 37.648 0 0 1 5.354 1.59 8.915 8.915 0 0 1 3.615 2.693 7.63 7.63 0 0 1 1.522 4.985 8.421 8.421 0 0 1-2.443 6.093z" class="cls-3"/>
                        </g>
                        <g id="그룹_6780-4">
                            <path id="패스_15504-11" d="M22.648 33.2a12.127 12.127 0 0 1-6.606 3.3v2.163a2.94 2.94 0 0 1-.862 2.207 3.061 3.061 0 0 1-2.23.838 3.064 3.064 0 0 1-2.231-.839 2.935 2.935 0 0 1-.863-2.207v-1.983a19.9 19.9 0 0 1-8.4-2.869A3.02 3.02 0 0 1 .333 32.7 3.452 3.452 0 0 1 0 31.071a3.565 3.565 0 0 1 .774-2.3 2.283 2.283 0 0 1 1.833-.971 3.341 3.341 0 0 1 1.061.177 7.939 7.939 0 0 1 1.37.662 16.28 16.28 0 0 0 3.624 1.5 14.034 14.034 0 0 0 3.579.442 6.678 6.678 0 0 0 3.556-.771 2.565 2.565 0 0 0 1.215-2.31 1.879 1.879 0 0 0-.728-1.522 5.631 5.631 0 0 0-1.814-.951q-1.083-.35-3.159-.883a42.678 42.678 0 0 1-5.436-1.7 9.364 9.364 0 0 1-3.668-2.693 7.386 7.386 0 0 1-1.548-4.923 8.613 8.613 0 0 1 2.473-6.135 12.134 12.134 0 0 1 6.539-3.441V3.045a2.916 2.916 0 0 1 .883-2.184A3.039 3.039 0 0 1 12.763 0a3.056 3.056 0 0 1 2.231.841 2.941 2.941 0 0 1 .863 2.2v2.08a18.781 18.781 0 0 1 7.16 2.779 3.247 3.247 0 0 1 1.126 1.171 3.374 3.374 0 0 1 .333 1.566 3.509 3.509 0 0 1-.795 2.3 2.341 2.341 0 0 1-1.856.971 2.906 2.906 0 0 1-1.016-.177 12.073 12.073 0 0 1-1.414-.663c-.206-.116-.663-.36-1.37-.727a11.425 11.425 0 0 0-2.277-.883 9.788 9.788 0 0 0-2.584-.333 5.533 5.533 0 0 0-3.226.861A2.683 2.683 0 0 0 8.7 14.3a2.261 2.261 0 0 0 1.415 2.119 21.673 21.673 0 0 0 4.463 1.414 37.82 37.82 0 0 1 5.368 1.59 8.937 8.937 0 0 1 3.624 2.693A7.617 7.617 0 0 1 25.1 27.1a8.41 8.41 0 0 1-2.452 6.1z" class="cls-7"/>
                        </g>
                        <g id="그룹_6781-4" transform="translate(.846 .001)">
                            <path id="패스_15504-12" d="M22.587 33.195A12.082 12.082 0 0 1 16 36.5v2.163a2.944 2.944 0 0 1-.86 2.207 3.048 3.048 0 0 1-2.224.838 3.051 3.051 0 0 1-2.225-.839 2.939 2.939 0 0 1-.861-2.207v-1.983a19.81 19.81 0 0 1-8.375-2.869A3.016 3.016 0 0 1 .332 32.7 3.459 3.459 0 0 1 0 31.071a3.571 3.571 0 0 1 .772-2.3A2.275 2.275 0 0 1 2.6 27.8a3.324 3.324 0 0 1 1.058.177 7.908 7.908 0 0 1 1.366.662 16.212 16.212 0 0 0 3.614 1.5 13.959 13.959 0 0 0 3.57.442 6.645 6.645 0 0 0 3.546-.771 2.567 2.567 0 0 0 1.212-2.31 1.88 1.88 0 0 0-.726-1.522 5.611 5.611 0 0 0-1.809-.951q-1.08-.35-3.15-.883a42.479 42.479 0 0 1-5.421-1.7 9.34 9.34 0 0 1-3.66-2.693 7.4 7.4 0 0 1-1.543-4.923 8.625 8.625 0 0 1 2.467-6.135 12.091 12.091 0 0 1 6.521-3.441V3.045a2.92 2.92 0 0 1 .88-2.184A3.027 3.027 0 0 1 12.729 0a3.043 3.043 0 0 1 2.225.841 2.945 2.945 0 0 1 .861 2.2v2.08A18.7 18.7 0 0 1 22.954 7.9a3.243 3.243 0 0 1 1.123 1.171 3.381 3.381 0 0 1 .332 1.566 3.515 3.515 0 0 1-.793 2.3 2.333 2.333 0 0 1-1.851.971 2.891 2.891 0 0 1-1.014-.177 12.025 12.025 0 0 1-1.41-.663c-.206-.116-.661-.36-1.366-.727a11.376 11.376 0 0 0-2.271-.883 9.737 9.737 0 0 0-2.577-.333 5.506 5.506 0 0 0-3.217.861A2.684 2.684 0 0 0 8.678 14.3a2.262 2.262 0 0 0 1.411 2.119 21.572 21.572 0 0 0 4.451 1.414 37.642 37.642 0 0 1 5.354 1.59 8.915 8.915 0 0 1 3.614 2.693A7.631 7.631 0 0 1 25.03 27.1a8.422 8.422 0 0 1-2.443 6.095z" class="cls-4"/>
                        </g>
                    </g>
                </g>
                <g id="freepik--device-1--inject-2" transform="translate(0 59.567)">
                    <path id="패스_15882" d="M160.513 400.055l-95.367-.444a20.761 20.761 0 0 1-20.676-20.847l1.009-238.876a20.77 20.77 0 0 1 20.873-20.668l95.359.436a20.77 20.77 0 0 1 20.675 20.844l-1.009 238.876a20.762 20.762 0 0 1-20.864 20.679z" class="cls-11" transform="translate(-44.47 -119.22)"/>
                    <path id="패스_15883" d="M163.962 129.32l-18.5-.086a4.59 4.59 0 0 0-4.506 4.674v3.349a4.581 4.581 0 0 1-4.506 4.665l-36.059-.12a4.581 4.581 0 0 1-4.464-4.708v-3.358a4.581 4.581 0 0 0-4.421-4.75H85l-16.178-.077A14.531 14.531 0 0 0 54.2 143.383l-.98 233.161a14.53 14.53 0 0 0 14.485 14.6l95.171.436a14.531 14.531 0 0 0 14.613-14.473l.983-233.161a14.53 14.53 0 0 0-14.511-14.627z" class="cls-6" transform="translate(-47.269 -120.631)"/>
                    <ellipse id="타원_276" cx="33.271" cy="33.244" class="cls-3" rx="33.271" ry="33.244" transform="translate(59.753 37.243)"/>
                    <path id="패스_19767" d="M33.244 0A33.258 33.258 0 1 1 0 33.244 33.291 33.291 0 0 1 33.244 0z" class="cls-4" transform="rotate(-45 103.176 -18.313)"/>
                    <path id="패스_19768" d="M25.344 0C39.345 0 50.7 11.066 50.7 24.709s-11.343 24.7-25.344 24.7S0 38.339 0 24.7 11.343 0 25.344 0z" class="cls-5" transform="rotate(-19.78 179.498 -139.081)"/>
                    <path id="패스_15884" d="M153.95 219.69a25.342 25.342 0 0 1-32.16-14.61c.077.231.145.461.222.684a25.342 25.342 0 0 0 47.7-17.139c-.078-.23-.172-.452-.258-.675a25.319 25.319 0 0 1-15.504 31.74z" class="cls-6" transform="translate(-55.675 -129.228)"/>
                    <path id="패스_15885" d="M136.984 170.425a25.351 25.351 0 0 1 32.168 14.6c-.077-.231-.145-.453-.231-.684a25.342 25.342 0 0 0-47.7 17.139c.087.23.181.452.266.675a25.31 25.31 0 0 1 15.497-31.73z" class="cls-3" transform="translate(-55.375 -126.262)"/>
                    <path id="패스_15888" d="M139.493 180.286c.077.214-1.334.931-3.566 1.862l.333-.7c.445 1.068.941 2.341 1.462 3.734l.222.624-.624.222-1.009.367c-1.779.641-3.42 1.2-4.831 1.615l.334-.7c.7 2.3 1.052 3.853.855 3.93s-.941-1.333-1.873-3.563l-.2-.478.53-.222c1.343-.564 2.976-1.2 4.754-1.837l1.009-.359-.393.854c-.5-1.4-.923-2.708-1.257-3.819l-.171-.547.5-.154c2.326-.709 3.874-1.085 3.925-.829z" class="cls-6" transform="translate(-56.951 -128.1)"/>
                    <g id="그룹_6786" transform="rotate(-25 159.83 -128.937)">
                        <g id="그룹_6522-5" transform="translate(2.992 .002)">
                            <path id="패스_15504-13" d="M21.136 31.075a11.3 11.3 0 0 1-6.165 3.1V36.2a2.756 2.756 0 0 1-.8 2.066 2.851 2.851 0 0 1-2.081.784 2.854 2.854 0 0 1-2.09-.789 2.752 2.752 0 0 1-.8-2.061v-1.864a18.536 18.536 0 0 1-7.836-2.686 2.823 2.823 0 0 1-1.053-1.036A3.24 3.24 0 0 1 0 29.085a3.343 3.343 0 0 1 .722-2.148 2.128 2.128 0 0 1 1.71-.908 3.11 3.11 0 0 1 .99.166 7.4 7.4 0 0 1 1.279.62 15.175 15.175 0 0 0 3.381 1.405 13.061 13.061 0 0 0 3.34.414 6.216 6.216 0 0 0 3.318-.721 2.4 2.4 0 0 0 1.134-2.17 1.761 1.761 0 0 0-.68-1.425 5.248 5.248 0 0 0-1.693-.89q-1.01-.328-2.948-.827a39.733 39.733 0 0 1-5.071-1.591 8.743 8.743 0 0 1-3.423-2.522A6.929 6.929 0 0 1 .614 13.88a8.075 8.075 0 0 1 2.307-5.743 11.312 11.312 0 0 1 6.1-3.221V2.85A2.733 2.733 0 0 1 9.847.806 2.831 2.831 0 0 1 11.908 0a2.848 2.848 0 0 1 2.082.788 2.758 2.758 0 0 1 .81 2.064v1.942A17.5 17.5 0 0 1 21.478 7.4a3.036 3.036 0 0 1 1.051 1.1 3.167 3.167 0 0 1 .311 1.466 3.291 3.291 0 0 1-.74 2.144 2.182 2.182 0 0 1-1.732.909 2.705 2.705 0 0 1-.949-.166 11.258 11.258 0 0 1-1.32-.62c-.193-.108-.619-.337-1.279-.681a10.643 10.643 0 0 0-2.125-.827 9.108 9.108 0 0 0-2.412-.312 5.15 5.15 0 0 0-3.01.806 2.513 2.513 0 0 0-1.154 2.168 2.117 2.117 0 0 0 1.32 1.984 20.182 20.182 0 0 0 4.161 1.323 35.2 35.2 0 0 1 5.01 1.489A8.343 8.343 0 0 1 22 20.7a7.146 7.146 0 0 1 1.425 4.67 7.884 7.884 0 0 1-2.289 5.705z" class="cls-3"/>
                        </g>
                        <g id="그룹_6780-5">
                            <path id="패스_15504-14" d="M21.206 31.076a11.352 11.352 0 0 1-6.185 3.1V36.2a2.752 2.752 0 0 1-.807 2.066 2.866 2.866 0 0 1-2.088.784 2.869 2.869 0 0 1-2.089-.786 2.747 2.747 0 0 1-.808-2.064v-1.863a18.638 18.638 0 0 1-7.863-2.687 2.828 2.828 0 0 1-1.054-1.035A3.231 3.231 0 0 1 0 29.086a3.336 3.336 0 0 1 .724-2.148 2.137 2.137 0 0 1 1.716-.909 3.129 3.129 0 0 1 .993.166 7.43 7.43 0 0 1 1.283.62 15.253 15.253 0 0 0 3.393 1.406 13.145 13.145 0 0 0 3.351.414 6.253 6.253 0 0 0 3.329-.721 2.4 2.4 0 0 0 1.138-2.17 1.759 1.759 0 0 0-.682-1.425 5.271 5.271 0 0 0-1.7-.89q-1.012-.329-2.955-.829a39.961 39.961 0 0 1-5.09-1.59 8.77 8.77 0 0 1-3.435-2.522A6.914 6.914 0 0 1 .616 13.88a8.062 8.062 0 0 1 2.315-5.743 11.361 11.361 0 0 1 6.122-3.221V2.85A2.729 2.729 0 0 1 9.879.806 2.846 2.846 0 0 1 11.948 0a2.862 2.862 0 0 1 2.089.788 2.753 2.753 0 0 1 .808 2.064v1.942a17.59 17.59 0 0 1 6.7 2.605A3.04 3.04 0 0 1 22.6 8.5a3.159 3.159 0 0 1 .312 1.466 3.284 3.284 0 0 1-.744 2.148 2.192 2.192 0 0 1-1.737.909 2.722 2.722 0 0 1-.952-.166 11.314 11.314 0 0 1-1.324-.62c-.193-.108-.621-.337-1.283-.681a10.7 10.7 0 0 0-2.132-.827 9.167 9.167 0 0 0-2.42-.312 5.18 5.18 0 0 0-3.02.806 2.511 2.511 0 0 0-1.158 2.168A2.117 2.117 0 0 0 9.47 15.37a20.3 20.3 0 0 0 4.179 1.324 35.407 35.407 0 0 1 5.026 1.489 8.369 8.369 0 0 1 3.394 2.517 7.131 7.131 0 0 1 1.43 4.67 7.871 7.871 0 0 1-2.293 5.706z" class="cls-7"/>
                        </g>
                        <g id="그룹_6781-5" transform="translate(.81)">
                            <path id="패스_15504-15" d="M21.133 31.076a11.3 11.3 0 0 1-6.164 3.1V36.2a2.757 2.757 0 0 1-.8 2.066 2.85 2.85 0 0 1-2.081.784A2.854 2.854 0 0 1 10 38.262a2.753 2.753 0 0 1-.8-2.062v-1.864a18.531 18.531 0 0 1-7.839-2.686 2.823 2.823 0 0 1-1.05-1.035A3.24 3.24 0 0 1 0 29.086a3.344 3.344 0 0 1 .722-2.148 2.127 2.127 0 0 1 1.71-.909 3.109 3.109 0 0 1 .99.166 7.394 7.394 0 0 1 1.278.62 15.171 15.171 0 0 0 3.381 1.406 13.057 13.057 0 0 0 3.34.414 6.214 6.214 0 0 0 3.318-.721 2.4 2.4 0 0 0 1.134-2.17 1.761 1.761 0 0 0-.68-1.425 5.247 5.247 0 0 0-1.693-.89q-1.01-.328-2.947-.827a39.723 39.723 0 0 1-5.072-1.592 8.742 8.742 0 0 1-3.423-2.522A6.93 6.93 0 0 1 .614 13.88a8.076 8.076 0 0 1 2.307-5.743 11.309 11.309 0 0 1 6.1-3.221V2.85A2.734 2.734 0 0 1 9.845.806 2.831 2.831 0 0 1 11.907 0a2.847 2.847 0 0 1 2.081.788 2.758 2.758 0 0 1 .806 2.064v1.942A17.493 17.493 0 0 1 21.475 7.4a3.036 3.036 0 0 1 1.051 1.1 3.168 3.168 0 0 1 .311 1.466 3.291 3.291 0 0 1-.741 2.148 2.182 2.182 0 0 1-1.731.909 2.7 2.7 0 0 1-.948-.166 11.257 11.257 0 0 1-1.32-.62c-.193-.108-.619-.337-1.278-.681a10.641 10.641 0 0 0-2.125-.827 9.105 9.105 0 0 0-2.411-.312 5.149 5.149 0 0 0-3.01.806 2.513 2.513 0 0 0-1.154 2.168 2.117 2.117 0 0 0 1.32 1.984 20.177 20.177 0 0 0 4.161 1.319 35.193 35.193 0 0 1 5.009 1.489 8.342 8.342 0 0 1 3.384 2.517 7.147 7.147 0 0 1 1.425 4.67 7.885 7.885 0 0 1-2.285 5.706z" class="cls-4"/>
                        </g>
                    </g>
                </g>
                <ellipse id="freepik--shadow--inject-2" cx="34.379" cy="12.114" class="cls-3" rx="34.379" ry="12.114" transform="translate(42.935 294.154)"/>
                <ellipse id="freepik--shadow--inject-2-2" cx="40.925" cy="12.114" class="cls-3" rx="40.925" ry="12.114" transform="translate(241.942 289.393)"/>
                <g id="그룹_7103" transform="translate(7.155 88.312)">
                    <g id="그룹_7095" transform="translate(88.642 137.049)">
                        <path id="패스_19581" d="M-4232.724 4509.444s4.472 30.178 35.724 21.491l2.681 8.045s-39.941 12.241-46.519-27.044z" class="cls-12" transform="translate(4240.838 -4509.444)"/>
                        <g id="그룹_7094" transform="translate(33.871 8.817)">
                            <path id="패스_19582" d="M-4185.341 4541.279l1.72 10.651a2.711 2.711 0 0 0 3.689 2.079l.9-.363a2.707 2.707 0 0 0 1.675-2.2l.219-1.872 15.159-4.154 6.812 1.446 1.746-5.57-2.231-11.56-10.084 1.973-1.19 3.462-13.191 3.591-.092-.651a2.712 2.712 0 0 0-3.563-2.184 2.709 2.709 0 0 0-1.815 2.831z" class="cls-13" transform="translate(4185.606 -4526.12)"/>
                            <path id="패스_19583" d="M-4155.153 4532.885l2.719-7.763a1.924 1.924 0 0 1 1.924-1.285 1.923 1.923 0 0 1 1.688 2.616l-2.889 7.437z" class="cls-13" transform="translate(4173.83 -4523.834)"/>
                            <path id="패스_19584" d="M-4140.561 4529.737l-3.984 3.375a4.38 4.38 0 0 0-1.534 2.963l-.472 5.494a4.377 4.377 0 0 0 3.453 4.657l3.025.642 1.746-5.57z" class="cls-13" transform="translate(4170.509 -4526.12)"/>
                            <path id="패스_19585" d="M-4162.942 4538.607l.531 2.354-9.5 2.435a1.449 1.449 0 0 0-1.03 1.551l.849 7.75-1.636-.171-1.56-10.58z" class="cls-14" transform="translate(4181.618 -4529.555)"/>
                            <path id="패스_19586" d="M-4177.83 4563.391a.8.8 0 0 1-1.094.3.8.8 0 0 1-.3-1.091.8.8 0 0 1 1.092-.307.8.8 0 0 1 .302 1.098z" class="cls-3" transform="translate(4183.181 -4538.689)"/>
                            <path id="패스_19587" d="M-4138.5 4547.31l1.613-3.752-.95-9.329.377 9.007z" class="cls-15" transform="translate(4167.39 -4527.858)"/>
                        </g>
                    </g>
                    <g id="그룹_7096" transform="translate(53.534 175.876)">
                        <path id="패스_19588" d="M-4298.085 4572.808l8.2 31.741h19.47l10.547-30.8z" class="cls-12" transform="translate(4298.085 -4572.808)"/>
                        <path id="패스_19589" d="M-4293.019 4590.212s16.235.541 27.86-1.664l-6.524 20.534h2.937l8.407-24.568a116.965 116.965 0 0 1-33.432 2.891z" class="cls-16" transform="translate(4296.417 -4577.34)"/>
                        <path id="패스_19590" d="M-4267.512 4590.679l-1.546 20.532h2.55l4.383-21.2z" class="cls-16" transform="translate(4286.859 -4579.471)"/>
                    </g>
                    <g id="그룹_7097" transform="translate(54.526 194.559)">
                        <path id="패스_19591" d="M-4265.919 4618.091l.447-14.792h15.313l-6.454 14.792z" class="cls-17" transform="translate(4284.652 -4603.298)"/>
                        <path id="패스_19592" d="M-4289.882 4618.993l-6.584-11.9 19.183-1.466-.448 13.364z" class="cls-18" transform="translate(4296.467 -4604.201)"/>
                        <path id="패스_19593" d="M-4289.705 4607.707l4.819 11.9h4.266l-4.7-12.4z" class="cls-19" transform="translate(4293.852 -4604.812)"/>
                        <path id="패스_19594" d="M-4265.472 4603.3l-.447 14.792h2.952l1.43-14.792z" class="cls-20" transform="translate(4284.652 -4603.298)"/>
                        <path id="패스_19595" d="M-4285.73 4627.439v1.782l2.846 4.419c.846 1.313 3.084 2.091 5.377 1.866l3.6-.353c.884-.086 1.568-.514 1.683-1.054l.343-1.62z" class="cls-17" transform="translate(4292.315 -4612.646)"/>
                        <path id="패스_19596" d="M-4285.73 4627.439l5.328 6.219a2.791 2.791 0 0 0 2.225.725l4.329-.273c1.318-.086 2.229-.841 1.966-1.629l-1.7-5.041z" class="cls-19" transform="translate(4292.315 -4612.646)"/>
                        <path id="패스_19597" fill="#d9dbdb" d="M-4277.583 4627.438l.907 6.945-5.172-6.945z" transform="translate(4290.813 -4612.646)"/>
                        <path id="패스_19598" fill="#8c8c8c" d="M-4264.565 4634.1h7.986c.929 0 1.636-.5 1.484-1.061l-1.518-5.6h-9.307z" transform="translate(4284.652 -4612.646)"/>
                        <path id="패스_19599" fill="#aeafaf" d="M-4256.612 4627.439l1.236 4.561c.146.543-.549 1.033-1.457 1.028l-7.962-.055-1.124-5.534z" transform="translate(4284.652 -4612.646)"/>
                        <path id="패스_19600" d="M-4262.967 4627.438l-1.828 5.535-1.124-5.535z" opacity="0.11" transform="translate(4284.652 -4612.646)"/>
                    </g>
                    <g id="그룹_7098" transform="translate(36.606 124.341)">
                        <path id="패스_19601" d="M-4302.763 4493.139l-16.172 11.048s-8.112 11.779 11.909 16.026l6.135-19.449-.625-7.352z" class="cls-25" transform="translate(4323.706 -4490.422)"/>
                        <path id="패스_19602" fill="#efb192" d="M-4270.608 4495.276c-1.419 3.229.124 6.733 3.9 8.845l1.652.926-7.551 9.588-10.927-9.716 3.926-3.137a4.808 4.808 0 0 0 2.014-3.928l-.116-2.627z" transform="translate(4309.387 -4491.23)"/>
                        <path id="패스_19603" d="M-4244.949 4493.734l14.242 12.359a2.04 2.04 0 0 1-.569 3.559l-8.446 4.269z" class="cls-25" transform="translate(4294.463 -4490.652)"/>
                        <path id="패스_19604" d="M-4277.405 4489.8l-28.975-1.091-6.79 32.107v10.829l-11.83 10.569c-1.2 1.068-.773 2.623.893 3.315 8.519 3.536 33.981 11.577 64.1-2.793 1.4-.667 1.835-1.967.986-2.99l-7.774-9.357.254-4.78c.607-11.461-2.566-22.866-9.275-33.334z" class="cls-18" transform="translate(4325.688 -4488.705)"/>
                        <path id="패스_19605" d="M-4265.467 4491.343l1.662 2.649s-8.994 8.477-33.7 4.188l2.022-9.476z" class="cls-20" transform="translate(4314.787 -4488.705)"/>
                        <path id="패스_19606" d="M-4305.272 4557.708s24.955 7.68 47.083-.4l-1.378-1.285z" class="cls-25" transform="translate(4317.792 -4514.773)"/>
                        <path id="패스_19607" d="M-4258.9 4555.048a112.34 112.34 0 0 1-46.375 1.252v-2.371s25.518 4.19 46.515-1.542z" class="cls-27" transform="translate(4317.792 -4513.365)"/>
                        <path id="패스_19608" d="M-4321.154 4575.333s10.607 7.734 35.75 4.8c.004.002-20.296 7.1-35.75-4.8z" class="cls-19" transform="translate(4323.934 -4522.25)"/>
                        <path id="패스_19609" d="M-4293.478 4504.705c-.3.734-4.4 17.961-4.4 17.961v10.513l5.981.876-1.583-11.389z" class="cls-19" transform="translate(4314.931 -4492.551)"/>
                        <path id="패스_19610" d="M-4241.83 4554.757s2.405-16.171 0-31.7c0 0 6.414 11.455 5.993 30.573z" class="cls-19" transform="translate(4290.965 -4513.386)"/>
                        <path id="패스_19611" d="M-4264.691 4579.119c0 .691.8 1.252 1.791 1.252s1.791-.562 1.791-1.252-.8-1.252-1.791-1.252-1.791.56-1.791 1.252z" class="cls-25" transform="translate(4302.099 -4523.231)"/>
                        <path id="패스_19612" d="M-4265.718 4578.457c0 .692.8 1.252 1.791 1.252s1.792-.56 1.792-1.252-.8-1.252-1.792-1.252-1.791.561-1.791 1.252z" class="cls-27" transform="translate(4302.494 -4522.975)"/>
                        <path id="패스_19613" d="M-4264.858 4578.492a.592.592 0 0 0 .549.626.591.591 0 0 0 .55-.626.592.592 0 0 0-.55-.626.593.593 0 0 0-.549.626z" class="cls-28" transform="translate(4302.163 -4523.231)"/>
                        <path id="패스_19614" d="M-4236.287 4572.662c0 .69.8 1.25 1.791 1.25s1.792-.56 1.792-1.25-.8-1.251-1.792-1.251-1.791.559-1.791 1.251z" class="cls-25" transform="translate(4291.113 -4520.732)"/>
                        <path id="패스_19615" d="M-4237.315 4572c0 .691.8 1.251 1.791 1.251s1.791-.561 1.791-1.251-.8-1.251-1.791-1.251-1.791.558-1.791 1.251z" class="cls-27" transform="translate(4291.511 -4520.475)"/>
                        <path id="패스_19616" d="M-4236.455 4572.035a.593.593 0 0 0 .552.626.592.592 0 0 0 .548-.626.59.59 0 0 0-.548-.625.591.591 0 0 0-.552.625z" class="cls-28" transform="translate(4291.178 -4520.732)"/>
                        <path id="패스_19617" d="M-4295.968 4577.406c0 .693.8 1.251 1.79 1.251s1.792-.559 1.792-1.251-.8-1.251-1.792-1.251-1.79.56-1.79 1.251z" class="cls-25" transform="translate(4314.195 -4522.569)"/>
                        <path id="패스_19618" d="M-4297 4576.745c0 .692.8 1.252 1.791 1.252s1.792-.56 1.792-1.252-.8-1.25-1.792-1.25-1.791.558-1.791 1.25z" class="cls-27" transform="translate(4314.592 -4522.313)"/>
                        <ellipse id="타원_428" cx=".55" cy=".626" class="cls-28" rx=".55" ry=".626" transform="translate(18.123 53.586)"/>
                    </g>
                    <g id="freepik--character-2--inject-2" transform="translate(88.188 122.999)">
                        <path id="패스_17909" d="M29.943 0c16.538 0 29.944 13.1 29.944 29.262S46.481 58.524 29.943 58.524 0 45.423 0 29.262 13.406 0 29.943 0z" class="cls-29" transform="translate(1.9 3.257)"/>
                        <ellipse id="타원_281" cx="29.943" cy="29.262" class="cls-28" rx="29.943" ry="29.262" transform="translate(.077 .179)"/>
                        <path id="패스_17908" d="M22.816 0c12.6 0 22.817 9.738 22.818 21.749S35.419 43.5 22.818 43.5 0 33.758 0 21.747 10.214 0 22.816 0z" class="cls-30" transform="rotate(-2.95 169.951 -111.276)"/>
                        <path id="패스_15958" d="M315.485 324.994A22.68 22.68 0 0 1 290.66 305.6a3.1 3.1 0 0 0 .043.628 22.632 22.632 0 0 0 24.911 20c12.538-1.221 21.709-12.085 20.494-24.334a4.837 4.837 0 0 0-.086-.636 22.448 22.448 0 0 1-20.537 23.736z" class="cls-6" transform="translate(-283.485 -274.298)"/>
                        <path id="패스_15959" d="M311.122 273.609A22.675 22.675 0 0 1 335.947 293a3.208 3.208 0 0 0-.043-.636 22.64 22.64 0 0 0-24.9-20c-12.531 1.214-21.716 12.092-20.494 24.341a4.82 4.82 0 0 0 .079.636 22.444 22.444 0 0 1 20.533-23.732z" opacity="0.3" transform="translate(-283.41 -266.009)"/>
                        <g id="그룹_6788" transform="rotate(-18.01 58.25 -28.336)">
                            <g id="그룹_6522-6" transform="translate(2.598)">
                                <path id="패스_15504-16" d="M18.909 27.745a10.126 10.126 0 0 1-5.517 2.767v1.808a2.46 2.46 0 0 1-.72 1.845 2.555 2.555 0 0 1-1.862.7 2.555 2.555 0 0 1-1.862-.7 2.453 2.453 0 0 1-.72-1.845v-1.66a16.6 16.6 0 0 1-7.01-2.4 2.521 2.521 0 0 1-.94-.924A2.887 2.887 0 0 1 0 25.974a2.983 2.983 0 0 1 .647-1.919 1.906 1.906 0 0 1 1.53-.812 2.786 2.786 0 0 1 .885.148 6.622 6.622 0 0 1 1.144.553A13.578 13.578 0 0 0 7.231 25.2a11.7 11.7 0 0 0 2.988.369 5.572 5.572 0 0 0 2.969-.645 2.146 2.146 0 0 0 1.012-1.939 1.57 1.57 0 0 0-.608-1.272 4.7 4.7 0 0 0-1.514-.794q-.9-.292-2.637-.738a35.59 35.59 0 0 1-4.538-1.42 7.814 7.814 0 0 1-3.062-2.251A6.176 6.176 0 0 1 .553 12.4 7.207 7.207 0 0 1 2.62 7.268 10.134 10.134 0 0 1 8.08 4.39V2.546A2.44 2.44 0 0 1 8.818.72 2.537 2.537 0 0 1 10.663 0a2.549 2.549 0 0 1 1.862.7 2.458 2.458 0 0 1 .72 1.843V4.28a15.662 15.662 0 0 1 5.977 2.32 2.71 2.71 0 0 1 .94.979 2.822 2.822 0 0 1 .278 1.309 2.936 2.936 0 0 1-.664 1.919 1.955 1.955 0 0 1-1.55.812 2.423 2.423 0 0 1-.849-.148 10.069 10.069 0 0 1-1.181-.554c-.172-.1-.553-.3-1.144-.608a9.528 9.528 0 0 0-1.9-.738 8.162 8.162 0 0 0-2.157-.271 4.617 4.617 0 0 0-2.693.72 2.244 2.244 0 0 0-1.033 1.936 1.889 1.889 0 0 0 1.181 1.771 18.073 18.073 0 0 0 3.726 1.181 31.539 31.539 0 0 1 4.482 1.328 7.457 7.457 0 0 1 3.025 2.251 6.369 6.369 0 0 1 1.274 4.169 7.037 7.037 0 0 1-2.048 5.089z" class="cls-29"/>
                            </g>
                            <g id="그룹_6780-6">
                                <path id="패스_15504-17" d="M18.909 27.745a10.126 10.126 0 0 1-5.517 2.767v1.808a2.46 2.46 0 0 1-.72 1.845 2.555 2.555 0 0 1-1.862.7 2.555 2.555 0 0 1-1.862-.7 2.453 2.453 0 0 1-.72-1.845v-1.66a16.6 16.6 0 0 1-7.01-2.4 2.521 2.521 0 0 1-.94-.924A2.887 2.887 0 0 1 0 25.974a2.983 2.983 0 0 1 .647-1.919 1.906 1.906 0 0 1 1.53-.812 2.786 2.786 0 0 1 .885.148 6.622 6.622 0 0 1 1.144.553A13.578 13.578 0 0 0 7.231 25.2a11.7 11.7 0 0 0 2.988.369 5.572 5.572 0 0 0 2.969-.645 2.146 2.146 0 0 0 1.012-1.939 1.57 1.57 0 0 0-.608-1.272 4.7 4.7 0 0 0-1.514-.794q-.9-.292-2.637-.738a35.59 35.59 0 0 1-4.538-1.42 7.814 7.814 0 0 1-3.062-2.251A6.176 6.176 0 0 1 .553 12.4 7.207 7.207 0 0 1 2.62 7.268 10.134 10.134 0 0 1 8.08 4.39V2.546A2.44 2.44 0 0 1 8.818.72 2.537 2.537 0 0 1 10.663 0a2.549 2.549 0 0 1 1.862.7 2.458 2.458 0 0 1 .72 1.843V4.28a15.662 15.662 0 0 1 5.977 2.32 2.71 2.71 0 0 1 .94.979 2.822 2.822 0 0 1 .278 1.309 2.936 2.936 0 0 1-.664 1.919 1.955 1.955 0 0 1-1.55.812 2.423 2.423 0 0 1-.849-.148 10.069 10.069 0 0 1-1.181-.554c-.172-.1-.553-.3-1.144-.608a9.528 9.528 0 0 0-1.9-.738 8.162 8.162 0 0 0-2.157-.271 4.617 4.617 0 0 0-2.693.72 2.244 2.244 0 0 0-1.033 1.936 1.889 1.889 0 0 0 1.181 1.771 18.073 18.073 0 0 0 3.726 1.181 31.539 31.539 0 0 1 4.482 1.328 7.457 7.457 0 0 1 3.025 2.251 6.369 6.369 0 0 1 1.274 4.169 7.037 7.037 0 0 1-2.048 5.089z" class="cls-7"/>
                            </g>
                            <g id="그룹_6781-6" transform="translate(.65)">
                                <path id="패스_15504-18" d="M18.909 27.745a10.126 10.126 0 0 1-5.517 2.767v1.808a2.46 2.46 0 0 1-.72 1.845 2.555 2.555 0 0 1-1.862.7 2.555 2.555 0 0 1-1.862-.7 2.453 2.453 0 0 1-.72-1.845v-1.66a16.6 16.6 0 0 1-7.01-2.4 2.521 2.521 0 0 1-.94-.924A2.887 2.887 0 0 1 0 25.974a2.983 2.983 0 0 1 .647-1.919 1.906 1.906 0 0 1 1.53-.812 2.786 2.786 0 0 1 .885.148 6.622 6.622 0 0 1 1.144.553A13.578 13.578 0 0 0 7.231 25.2a11.7 11.7 0 0 0 2.988.369 5.572 5.572 0 0 0 2.969-.645 2.146 2.146 0 0 0 1.012-1.939 1.57 1.57 0 0 0-.608-1.272 4.7 4.7 0 0 0-1.514-.794q-.9-.292-2.637-.738a35.59 35.59 0 0 1-4.538-1.42 7.814 7.814 0 0 1-3.062-2.251A6.176 6.176 0 0 1 .553 12.4 7.207 7.207 0 0 1 2.62 7.268 10.134 10.134 0 0 1 8.08 4.39V2.546A2.44 2.44 0 0 1 8.818.72 2.537 2.537 0 0 1 10.663 0a2.549 2.549 0 0 1 1.862.7 2.458 2.458 0 0 1 .72 1.843V4.28a15.662 15.662 0 0 1 5.977 2.32 2.71 2.71 0 0 1 .94.979 2.822 2.822 0 0 1 .278 1.309 2.936 2.936 0 0 1-.664 1.919 1.955 1.955 0 0 1-1.55.812 2.423 2.423 0 0 1-.849-.148 10.069 10.069 0 0 1-1.181-.554c-.172-.1-.553-.3-1.144-.608a9.528 9.528 0 0 0-1.9-.738 8.162 8.162 0 0 0-2.157-.271 4.617 4.617 0 0 0-2.693.72 2.244 2.244 0 0 0-1.033 1.936 1.889 1.889 0 0 0 1.181 1.771 18.073 18.073 0 0 0 3.726 1.181 31.539 31.539 0 0 1 4.482 1.328 7.457 7.457 0 0 1 3.025 2.251 6.369 6.369 0 0 1 1.274 4.169 7.037 7.037 0 0 1-2.048 5.089z" class="cls-28"/>
                            </g>
                        </g>
                        <path id="패스_15962" d="M337.713 280.359a.852.852 0 0 1-.136-.207c-.093-.15-.207-.35-.357-.607l-.572-.986a10.394 10.394 0 0 0-.822-1.321l-1.129-1.6c-.408-.578-.958-1.136-1.494-1.771a18.584 18.584 0 0 0-1.866-1.9 9.955 9.955 0 0 0-1.072-.979l-1.208-.943a31.462 31.462 0 0 0-5.868-3.507l-1.744-.714c-.293-.114-.593-.243-.893-.343l-.937-.278c-.636-.171-1.265-.386-1.923-.543l-2.009-.386a16.544 16.544 0 0 0-2.08-.257 17.728 17.728 0 0 0-2.144-.143h-2.194l-2.223.207a31.583 31.583 0 0 0-8.935 2.5 32.36 32.36 0 0 0-7.749 5.135 31.383 31.383 0 0 0-5.454 6.707l-.972 1.8-.243.443-.193.464c-.129.307-.257.607-.379.907a28.766 28.766 0 0 0-1.251 3.571c-.186.586-.264 1.193-.4 1.764a15.027 15.027 0 0 0-.307 1.721 26.409 26.409 0 0 0-.257 3.271 20.288 20.288 0 0 0 .086 2.978 19.33 19.33 0 0 0 .329 2.643c.179.814.272 1.586.479 2.271s.386 1.3.558 1.864a10.9 10.9 0 0 0 .536 1.428l.429 1.064.257.65a1.2 1.2 0 0 1 .079.229 1.584 1.584 0 0 1-.107-.207c-.064-.143-.172-.379-.293-.643s-.286-.643-.472-1.05a10.575 10.575 0 0 1-.565-1.428c-.179-.564-.379-1.186-.593-1.871s-.329-1.428-.507-2.278a19.37 19.37 0 0 1-.365-2.657 20.5 20.5 0 0 1-.114-3.007 26.939 26.939 0 0 1 .236-3.307 15.225 15.225 0 0 1 .3-1.736c.136-.586.214-1.193.393-1.786a29.275 29.275 0 0 1 1.244-3.643l.386-.921.193-.471.243-.45c.322-.6.643-1.207.979-1.821a31.674 31.674 0 0 1 5.5-6.807 32.486 32.486 0 0 1 7.863-5.164 31.568 31.568 0 0 1 9.042-2.528l2.252-.207h2.216a15.471 15.471 0 0 1 2.144.143 18.475 18.475 0 0 1 2.109.271l2.03.4c.665.157 1.3.371 1.937.557l.944.279c.314.107.608.236.908.357l1.758.714a31.037 31.037 0 0 1 5.9 3.571l1.215.957c.393.307.715.714 1.072 1a18.623 18.623 0 0 1 1.858 1.928c.529.65 1.072 1.214 1.48 1.807l1.108 1.621a10.669 10.669 0 0 1 .8 1.35l.536 1.014.329.621a1.655 1.655 0 0 1 .099.26z" class="cls-6" transform="translate(-280.622 -263.51)"/>
                    </g>
                    <g id="그룹_7099" transform="translate(43.081 140.324)">
                        <path id="패스_19619" d="M-4307.811 4515.254s5.278 32.051 36.531 23.363l2.682 8.044s-39.943 12.241-46.52-27.045a4.214 4.214 0 0 1 2.678-4.239c3.016-1.245 4.629-.123 4.629-.123z" class="cls-12" transform="translate(4315.129 -4514.791)"/>
                        <path id="패스_19620" d="M-4247.777 4544.737l2.725 10.438a2.71 2.71 0 0 0 3.871 1.719l.859-.446a2.708 2.708 0 0 0 1.459-2.346l.038-1.886 15.079-5.88 6.918.793 1.208-5.712-3.322-11.295-9.852 2.922-.854 3.557-13.172 5.135-.154-.64a2.709 2.709 0 0 0-3.753-1.833 2.706 2.706 0 0 0-1.54 2.988z" class="cls-13" transform="translate(4289.292 -4520.727)"/>
                        <path id="패스_19621" d="M-4217.872 4534.727l1.966-7.988a1.927 1.927 0 0 1 1.793-1.462 1.925 1.925 0 0 1 1.93 2.445l-2.169 7.676z" class="cls-13" transform="translate(4277.516 -4518.85)"/>
                        <path id="패스_19622" d="M-4203.5 4530.124l-3.647 3.738a4.374 4.374 0 0 0-1.244 3.1l.051 5.514a4.379 4.379 0 0 0 3.882 4.308l3.072.353 1.209-5.712z" class="cls-13" transform="translate(4273.851 -4520.727)"/>
                        <path id="패스_19623" d="M-4225.668 4540.7l.75 2.292-9.609 3.633a1.449 1.449 0 0 0-.878 1.64l1.582 7.636-1.645-.016-2.559-10.383z" class="cls-14" transform="translate(4285.311 -4524.824)"/>
                        <path id="패스_19624" d="M-4238.668 4567.974a.8.8 0 0 1-1.059.408.8.8 0 0 1-.409-1.058.8.8 0 0 1 1.06-.408.8.8 0 0 1 .408 1.058z" class="cls-3" transform="translate(4286.153 -4534.948)"/>
                        <path id="패스_19625" d="M-4200.053 4547.739l1.249-3.89-1.833-9.194 1.232 8.929z" class="cls-15" transform="translate(4270.852 -4522.481)"/>
                    </g>
                    <g id="그룹_7102">
                        <g id="그룹_7100">
                            <path id="패스_19626" d="M-4325.583 4341.4s20.785-17.118 11.92-38.7-34.89-16.36-34.89-16.36-24.318 4.8-21.429 26.553c1.372 10.317.937 17.1.1 21.378-1.219 6.239-10 8.968-15.28 4.72l-.219-.177s7.962 9.759 18.075 4.3c0 0 8.446-3.484 9.551-11.832 0 0-3.909 14.657-16.169 16.417 0 0 19.347 1.884 19.378-20.968a16.488 16.488 0 0 1 .156 14.173 19.005 19.005 0 0 0 6.352-10.99s1.006-10.2 7.4-9.292 11.471 14.96 10.033 21.213z" class="cls-28" transform="translate(4385.379 -4285.785)"/>
                            <path id="패스_19627" d="M-4302.42 4348.083s17.1-48.578-23.068-43.631c0 .001 48.913-13.546 23.068 43.631z" class="cls-27" transform="translate(4362.216 -4292.472)"/>
                            <path id="패스_19628" d="M-4335.127 4340.745s-1.979-24.855 20.458-17.379c0-.001-15.973-7.007-20.458 17.379z" class="cls-27" transform="translate(4365.959 -4299.796)"/>
                            <path id="패스_19629" d="M-4359.156 4331.174s-4.679-41.938 27.79-38.978c0 .004-26.34 3.911-27.79 38.978z" class="cls-30" transform="translate(4375.328 -4288.21)"/>
                            <ellipse id="타원_429" cx="44.306" cy="44.27" class="cls-32" rx="44.306" ry="44.27" transform="translate(21.624 41.033)"/>
                            <path id="패스_19630" d="M-4215.289 4430.526c1.607 10.3-8.353 13.87 7.094 11.462 3.508-.547 5.97-3.443 4.463-13.1-1.044-6.688-4.734-11.667-8.244-11.12-6.032.942-4.356 6.07-3.313 12.758z" class="cls-32" transform="translate(4320.254 -4336.878)"/>
                            <path id="패스_19631" d="M-4214.331 4428.752s5.579 3.964 8.454 16.783a5.708 5.708 0 0 1-2.085.721c-4.316.674-6.649.878-7.8.6l-.613-2.689a18.03 18.03 0 0 0 1.324-9.372c-.22-1.414-.468-2.754-.667-4.005z" class="cls-33" transform="translate(4320.02 -4341.147)"/>
                            <path id="패스_19632" d="M-4353.816 4452.279c1.608 10.293 4.735 11.664 8.243 11.118 12.529-1.951 5.089-2.085 3.394-12.951-1.044-6.687-1.318-12.18-7.172-11.268-3.508.547-5.507 6.412-4.465 13.101z" class="cls-32" transform="translate(4373.279 -4345.145)"/>
                            <path id="패스_19633" d="M-4340.28 4447.1l1.828 1.594c.276 1.48.5 3.129.765 4.858 1.7 10.864 9.135 11-3.393 12.951a8.285 8.285 0 0 1-1.085.1 46.693 46.693 0 0 1 1.885-19.503z" class="cls-33" transform="translate(4368.787 -4348.252)"/>
                            <path id="패스_19634" d="M-4335.189 4443.718c-.144 22.285 22.557 19.659 44.263 15.768 21.245-3.808 41.123-6.759 32.3-31.467-7-19.593-11.005-34.913-45.813-29.057-28.25 4.753-30.615 23.955-30.75 44.756z" class="cls-34" transform="translate(4365.968 -4329.123)"/>
                            <path id="패스_19635" d="M-4262.871 4410.934s-14.614-15.863-40.026-11.9-35.6 22.811-35.6 22.811l-4.578-9.013s7.851-31.456 35.5-43.522c0 0 24.436 2.167 45.644 31.537z" class="cls-19" transform="translate(4369.017 -4318.127)"/>
                            <path id="패스_19636" d="M-4260.979 4420.305s-13.846-12.528-38.732-8.651-35.308 19.479-35.308 19.479l-.59-1.39s5.2-29.5 32.475-40.025c0 0 23.212 5.694 43.138 29.042z" class="cls-32" transform="translate(4366.131 -4326.033)"/>
                            <path id="패스_19637" d="M-4262.871 4412.594s-14.614-15.865-40.026-11.9-35.6 22.811-35.6 22.811l-4.578-9.013s8.3-28.831 35.945-40.9c0 0 23.988-.459 45.2 28.912z" class="cls-18" transform="translate(4369.017 -4319.787)"/>
                            <ellipse id="타원_430" cx="1.864" cy="1.745" class="cls-18" rx="1.864" ry="1.745" transform="rotate(167 11.013 38.415)"/>
                            <path id="패스_19638" d="M-4238.968 4401.979l-3.582 8.071 4.3 1.106z" class="cls-19" transform="translate(4330.142 -4330.78)"/>
                            <path id="패스_19639" d="M-4237.56 4411.156l3.757-5.177-4.478-4-2.488 7.71z" class="cls-33" transform="translate(4329.453 -4330.78)"/>
                            <path id="패스_19640" d="M-4256.01 4390.671l-3.044 13.1 4.98.116z" class="cls-19" transform="translate(4336.523 -4326.401)"/>
                            <path id="패스_19641" d="M-4253.178 4403.884l4.02-10.023-5.955-3.19-1.625 12.567z" class="cls-33" transform="translate(4335.628 -4326.401)"/>
                            <path id="패스_19642" d="M-4276.687 4383.125l1.165 17.8 4.96-1.164z" class="cls-19" transform="translate(4343.343 -4323.479)"/>
                            <path id="패스_19643" d="M-4270.562 4399.765l1.259-15.281-7.384-1.359 2.129 16.839z" class="cls-33" transform="translate(4343.343 -4323.479)"/>
                            <path id="패스_19644" d="M-4298.968 4390.694l5.085 15.431 4.636-2.286z" class="cls-19" transform="translate(4351.959 -4326.409)"/>
                            <path id="패스_19645" d="M-4293.112 4402.628l-5.855-14.173 6.62-3.541 3.1 16.687z" class="cls-33" transform="translate(4351.959 -4324.172)"/>
                            <path id="패스_19646" d="M-4316.752 4407.161l6.6 9.735 3.479-3.109z" class="cls-19" transform="translate(4358.836 -4332.787)"/>
                            <path id="패스_19647" d="M-4309.871 4412.419l-6.881-8.324 4.7-4.85 5.374 11.475z" class="cls-33" transform="translate(4358.836 -4329.722)"/>
                            <path id="패스_19648" d="M-4326.966 4423.718l4.716 5.34 3.05-3.926z" class="cls-19" transform="translate(4362.788 -4339.198)"/>
                            <path id="패스_19649" d="M-4321.808 4424.235l-5.158-3.786 3.047-5.174 4.719 6.588z" class="cls-33" transform="translate(4362.788 -4335.928)"/>
                            <path id="패스_19650" d="M23.594.994c.711 1.429-5.1 2.944-11.469 6.486s-9.7 8.3-11.91 6.685c-1.306-.957 3.512-6.409 9.879-9.952s12.35-5.53 13.5-3.219z" class="cls-18" transform="rotate(-14.98 222.377 -69.46)"/>
                        </g>
                        <g id="그룹_7101" transform="translate(50.734 95.13)">
                            <path id="패스_19651" d="M-4232.248 4456.155c2.033-.324 3.33-2.645 2.9-5.247l-.867-5.262c-.46-2.8-2.608-4.884-4.8-4.584-2.2.3-3.525 2.886-2.958 5.707l1.066 5.289c.532 2.616 2.615 4.421 4.659 4.097z" class="cls-35" transform="translate(4277.112 -4441.033)"/>
                            <path id="패스_19652" d="M-4295.874 4465c-2.039.277-4.035-1.457-4.478-3.982l-.929-5.311c-.514-2.941.955-5.705 3.308-6.027 2.353-.32 4.511 1.947 4.807 4.917l.535 5.364c.252 2.55-1.204 4.756-3.243 5.039z" class="cls-35" transform="translate(4301.384 -4444.001)"/>
                        </g>
                    </g>
                </g>
                <g id="마스크_그룹_5" clip-path="url(#clip-path)" transform="translate(183.296 64.036)">
                    <g id="그룹_7118" transform="translate(11.835 35.758)">
                        <g id="그룹_7107">
                            <path id="패스_19653" d="M-3948.48 4631.6l-.063.378a3.307 3.307 0 0 0 3.263 3.853h1.7a5.592 5.592 0 0 0 5.225-3.6l.5-1.315 3.319-3.519a3.21 3.21 0 0 0 .876-2.2v-3.637z" class="cls-37" transform="translate(4039.546 -4432.571)"/>
                            <path id="패스_19654" d="M-3933.648 4621.554l-3.257 5.147-2.108 1.639-2.243 4.278a1.188 1.188 0 0 1-1.053.636h-5.068a1.188 1.188 0 0 1-1.093-1.655l4.309-10.044z" class="cls-38" transform="translate(4039.537 -4432.571)"/>
                            <g id="그룹_7104" transform="translate(59.588 188.192)">
                                <path id="패스_19655" d="M-4001.292 4625.491a12.952 12.952 0 0 0 6.43 7.861 11.032 11.032 0 0 0 10.381-.635c.96-.574 1.814-1.092 1.862-1.151v1.736l3.732-1.089v-6.722l-3.732 1.041s-10.157 8.505-18.673-1.041z" class="cls-37" transform="translate(4001.397 -4622.368)"/>
                                <path id="패스_19656" d="M-3982.688 4625.144a7.6 7.6 0 0 1-2.391 2.847 10.576 10.576 0 0 1-8.317 2.046 11.049 11.049 0 0 1-7.448-4.893s-1.4-3.269 0-4.923a5.887 5.887 0 0 0 2.432 3.988s3.452 2.567 6.937-1.23z" class="cls-38" transform="translate(4001.468 -4620.22)"/>
                            </g>
                            <path id="패스_19657" d="M-4060.956 4517.039s-21.776-5.611-20.195-7.989.44-5.344 5.662-4.363c6.1 1.145 14.385 2.411 14.385 2.411z" class="cls-39" transform="translate(4093.504 -4384.895)"/>
                            <path id="패스_19658" d="M-4081.03 4508.458s1.453-4.511-.058-6.739-2.751-3.834-5.318-4.314-4.411-3.045-4.92-2.548-2.23 1.9 2.024 4.045c0 0 2.01.575 1.183 1.278-.669.569-3.319-.134-6.888-.491-4.87-.489-4.07.252-3.489.9s5.821 1.663 7.224 2.375c1.094.557-8.184-.6-8.418.556-.388 1.9 9.59 1.893 8.66 2.467s-7.093.551-7.513 1.249c-1.29 2.15 8.812.915 8.8 1.525-.007.469-4.671 1.11-4.824 2.141s2.232.642 3.678.387c1.691-.3 2.427-.574 4.053-.779s4.273-.283 5.806-2.052z" class="cls-39" transform="translate(4101.016 -4380.944)"/>
                            <path id="패스_19659" d="M-4030.4 4419.215s-12.641 61.319 27.353 100.44l50.673-21.107 5-31.545s14.377-12.213 4.154-52.313z" class="cls-32" transform="translate(4073.595 -4348.319)"/>
                            <path id="패스_19660" d="M-3945.1 4404.047c.2 16.669 2.517 25.139-34.082 25.139-34.753 0-34.594-7.886-34.789-24.554s15.064-30.313 34.083-30.475 34.596 13.221 34.788 29.89z" class="cls-34" transform="translate(4066.142 -4331.812)"/>
                            <path id="패스_19661" d="M-3900.8 4425.717s3.357-10.224 9.841-3.021a9.033 9.033 0 0 1 .241 9.149 10.207 10.207 0 0 1-7.656 5.431 5.565 5.565 0 0 1-4.939-1.418z" class="cls-34" transform="translate(4021.127 -4350.535)"/>
                            <path id="패스_19662" d="M-4019.211 4429.068s-3.137-7.514-8.694-2.1c0 0-3.854 4.756 2.8 9.635 0 0 3.671 3.833 8.288-.069z" class="cls-34" transform="translate(4072.262 -4352.522)"/>
                            <path id="패스_19663" d="M-3897.962 4419.093l-4.995 37.809s.694-43.114-2.375-56.794c0-.001 9.375 1.927 7.37 18.985z" class="cls-25" transform="translate(4021.949 -4342.381)"/>
                            <path id="패스_19664" d="M-4023.63 4419.978l5.627 37.31s1.39-45.681 2.742-52.181c.001-.001-10.36-1.043-8.369 14.871z" class="cls-25" transform="translate(4070.175 -4344.411)"/>
                            <path id="패스_19665" d="M-3980.511 4373.174s-8.271 5.221-25.5 4.761c0 0 6.619-1.543 8.726-3.757 0 0-7.478.313-14.043 7.708 0 0-.45-3.257.9-4.357 0 0-8.781 6.413-10.367 23.528 0 0-4.873-5.766-9.949 2.255 0 0 1.444-13.478 7.8-18.985 0 0 5.019-24.078 38.113-22.928 0 0 31.584 2.6 43.267 36.1 0 0-6.221-3.073-10.486 4.283a35.849 35.849 0 0 0-11.83-25.505 65.293 65.293 0 0 1-12.952 1.893s5.693-2 7.163-3.987c0 0-10.235 4.674-18.029 3.987-.002-.005 5.935-1.948 7.187-4.996z" class="cls-25" transform="translate(4072.964 -4326.6)"/>
                            <path id="패스_19666" d="M-4029.1 4387.156s16.427-72.645 49.253-44.844c0 0 23.909-24.858 38.949 44.844 0 0-12.966-32.338-44.792-32.338-2.427 0-23.553-2.859-43.41 32.338z" class="cls-25" transform="translate(4072.294 -4316.26)"/>
                            <path id="패스_19667" d="M-3907.19 4493.093s-9.871 23.533 0 28.874c6.538 3.536 11.255.16 13.614-2.456a4.726 4.726 0 0 0-.4-6.882c-1.705-1.441-4.289-2.018-7.8 1.443 0 0 4.371-8.1 13.184-3.236a12.079 12.079 0 0 0-10.371-2.762s13.222-3.782 15.557 5.766c0 0 5.185 16.717-12.963 21.436 0 0-21.855 6.659-33.7-18.9-13.111-28.291 8.776-42.82 8.776-42.82l12.689 4.476 2.288 8.4z" class="cls-32" transform="translate(4038.977 -4372.296)"/>
                            <path id="패스_19668" d="M-3971.3 4480.282l15.787-1.281 21.269 85.521s-45.492 12.971-80.59-4.416l14.5-76.363 18.091-2.006z" class="cls-40" transform="translate(4066.492 -4374.513)"/>
                            <path id="패스_19669" d="M-4012.943 4471.414l-5.838 1.279-5.092 11.7c-3.125 7.175-11.926 11.287-20.648 9.647l-10.3-1.746 7.842 38.693a2.61 2.61 0 0 0 3.67 1.542l8.4-3.84c6.213-2.84 10.617-7.919 12-13.84l7.243-30.937z" class="cls-41" transform="translate(4082.759 -4371.423)"/>
                            <path id="패스_19670" d="M-3960.851 4585.715l-7.317-65.825-7.859 64.211a107.868 107.868 0 0 0 15.176 1.614z" class="cls-42" transform="translate(4050.707 -4391.167)"/>
                            <path id="패스_19671" fill="#2c2835" d="M-3962.391 4601.087l-3.478-43.089-5.437 42.068s5.406.807 8.915 1.021z" transform="translate(4048.786 -4406.686)"/>
                            <path id="패스_19672" d="M-3980.606 4524.845s-17.077-3.336-15.655-5.813.059-4.814 5.335-4.2 14.54.935 14.54.935z" class="cls-39" transform="translate(4058.972 -4389.065)"/>
                            <path id="패스_19674" d="M-3935.22 4478.755l-5.837 1.279-5.094 11.7c-3.124 7.176-11.925 11.288-20.647 9.646l-10.312-2.285 7.855 39.232a2.608 2.608 0 0 0 3.669 1.542l10.588-3.14c6.212-2.841 11.475-9.3 15.194-16.224s7.969-24.243 8.074-33.631-3.49-8.119-3.49-8.119z" class="cls-44" transform="translate(4051.147 -4374.389)"/>
                            <path id="패스_19675" d="M-3942.411 4480.426s-6.486-5.9-16.562 6.144c0 0-28.982 20.126-45.123-2.192l4.89-13.626 53.9-4.137z" class="cls-20" transform="translate(4062.125 -4369.467)"/>
                            <path id="패스_19676" d="M-4020.695 4440.056s-15.594 21.246 6.245 31.821c19.191 9.291 47.232-2 53.933-4.969a19.035 19.035 0 0 1 5.243-1.46c4.627-.6 12.235-.315 15.236 7.127a8.8 8.8 0 0 1 0 6.82s11.523-13.622-6.033-23.369c0 0-4.957-1.13-6.044-20.526l-5.9 7.344-32.24-2.307-13.551 2.244z" class="cls-25" transform="translate(4071.072 -4356.795)"/>
                            <g id="그룹_7108" transform="translate(0 90.361)">
                                <g id="그룹_6826" transform="translate(5.509 9.34)">
                                    <path id="패스_16907" d="M417.544 235a15.558 15.558 0 0 0-6.176-3.9c-8.845-3.391-12.02-.03-22.217 0-10.2-.028-13.371-3.39-22.217 0a15.556 15.556 0 0 0-6.175 3.9c2.506 8.109 17.188 9.225 28.392 9.225s25.349-3.349 28.393-9.225z" class="cls-30" transform="translate(-358.497 -229.583)"/>
                                    <g id="그룹_6825" transform="translate(0 5.416)">
                                        <path id="패스_16908" fill="#008d62" d="M358.986 259.3c.99 2.906 2.356 5.778 3.2 8.325a13.787 13.787 0 0 0 1.788 3.519c3.637 1.444 13.194 2.473 24.354 2.486h.2c11.161-.013 20.718-1.041 24.354-2.486a13.763 13.763 0 0 0 1.789-3.519c.845-2.547 2.212-5.419 3.2-8.325-7.141 3.232-17.68 5.279-29.446 5.279s-22.298-2.045-29.439-5.279z" transform="translate(-357.777 -247.083)"/>
                                        <g id="그룹_6824">
                                            <path id="패스_16909" d="M387.6 246.089c-11.2 0-21.288-2.842-28.392-7.379-3.151 3.52-2.522 7.907-1.054 12.219 6.2 4.071 17.68 6.21 29.446 6.21s23.009-2.139 29.446-6.21c1.468-4.312 2.1-8.7-1.054-12.219-7.099 4.537-17.183 7.379-28.392 7.379z" class="cls-28" transform="translate(-356.95 -238.71)"/>
                                        </g>
                                    </g>
                                </g>
                                <path id="패스_16910" d="M419.925 225.571s-7.56 3.494-6.92 7.156-.637 5.493-.637 5.493-.269-4.636-3.13-3.925-3.513 5.553-3.513 5.553 2.446-1.966 3.659-.792c.731.707.5 3.1.194 4.893-14.212 3.435-18.865-2.771-21.458-7.464a5.293 5.293 0 0 1 2.857-2.461c3.066-.653 5.679 2.762 5.679 2.762s2.856-5.624-1.508-7.883-8.642 2.661-8.642 2.661-.7-2.661 3.416-6.326-6.08-11.4-6.08-11.4-10.2 7.732-6.08 11.4 3.417 6.326 3.417 6.326-4.279-4.92-8.643-2.661-1.507 7.883-1.507 7.883 2.613-3.414 5.678-2.762a5.284 5.284 0 0 1 2.852 2.454c-2.6 4.7-7.255 10.925-21.522 7.456-.3-1.79-.533-4.173.2-4.878 1.214-1.174 3.659.792 3.659.792s-.651-4.843-3.513-5.553-3.13 3.925-3.13 3.925-1.277-1.831-.637-5.493-6.919-7.156-6.919-7.156-.78 6.862 7.588 19.149a2.09 2.09 0 0 0 .154.316l2.874 5.527c2.234 3.738 17.481 5.679 24.454 5.782v.018h2.147v-.018c6.974-.1 22.22-2.044 24.454-5.782l2.875-5.527a2.056 2.056 0 0 0 .208-.477c8.249-12.186 7.474-18.988 7.474-18.988z" class="cls-46" transform="translate(-347.674 -213.842)"/>
                                <path id="패스_16911" d="M437.717 232.728c.641 3.662-.637 5.493-.637 5.493s-.269-4.636-3.13-3.925-3.513 5.553-3.513 5.553 2.446-1.966 3.659-.792c.731.707.5 3.1.194 4.893-14.212 3.435-18.865-2.771-21.458-7.464a5.293 5.293 0 0 1 2.857-2.461c3.066-.653 5.679 2.762 5.679 2.762s2.856-5.624-1.508-7.883-8.643 2.661-8.643 2.661-.7-2.661 3.417-6.326-6.08-11.4-6.08-11.4l-.033.026v42.493H409.623v-.018c6.974-.1 22.22-2.044 24.454-5.782l2.875-5.527a2.064 2.064 0 0 0 .208-.477c8.253-12.186 7.478-18.988 7.478-18.988s-7.561 3.499-6.921 7.162z" class="cls-47" transform="translate(-372.386 -213.842)"/>
                                <g id="그룹_6835" transform="translate(9.826 36.187)">
                                    <g id="그룹_6834">
                                        <g id="그룹_6830" transform="translate(0 1.501)">
                                            <g id="그룹_6829">
                                                <g id="그룹_6828">
                                                    <path id="패스_16912" d="M416.443 277.356c-.83 2.4-11.722 4.3-25.044 4.3s-24.215-1.9-25.045-4.3h-.054v5.555c0 2.537 11.238 4.594 25.1 4.594s25.1-2.057 25.1-4.594v-5.555z" class="cls-46" transform="translate(-365.063 -277.356)"/>
                                                    <g id="그룹_6827" transform="translate(0 5.279)">
                                                        <path id="패스_16913" d="M415.656 286.253v.275c0 2.537-11.238 4.594-25.1 4.594s-25.1-2.057-25.1-4.594v-.275c-.8.266-1.235.55-1.235.844 0 1.538 7.467 5.8 26.336 5.8 20.292 0 26.335-4.262 26.335-5.8-.002-.297-.437-.578-1.236-.844z" class="cls-47" transform="translate(-364.219 -286.253)"/>
                                                        <path id="패스_16914" d="M391 292.877c-10.54 0-17.346-1.33-21.291-2.677 5.333 1.533 14.424 2.145 21.291 2.145 9.779 0 24.068-1.242 25.59-4.614a1.136 1.136 0 0 1 .1.064c-.37 1.005-5.63 5.082-25.69 5.082zm-25.149-4.529a1.865 1.865 0 0 1-.529-.563 1.011 1.011 0 0 1 .087-.055 2.13 2.13 0 0 0 .447.618z" class="cls-46" transform="translate(-364.669 -286.854)"/>
                                                    </g>
                                                </g>
                                            </g>
                                        </g>
                                        <g id="그룹_6831">
                                            <path id="패스_16915" d="M416.2 274.945l-.473.428c-.429 1.473-11.307 4.46-25.169 4.46s-24.638-2.329-25.1-4.594l-.648-.411c-.46.117-.586.685-.586.98 0 1.538 7.467 5.8 26.336 5.8 20.292 0 26.335-4.262 26.335-5.8-.005-.296.105-.597-.695-.863z" class="cls-47" transform="translate(-364.219 -274.827)"/>
                                            <path id="패스_16916" d="M390.979 281.518c-18.5 0-25.492-4.095-25.714-5.2a.736.736 0 0 1 .029-.186l.067.042c1.336 3.016 13.856 4.808 25.619 4.808 12.459 0 24.336-2.568 25.668-4.694l.048-.043v.091c-.039.808-4.937 5.182-25.717 5.182z" class="cls-46" transform="translate(-364.644 -275.36)"/>
                                        </g>
                                        <g id="그룹_6833" transform="translate(2.671 4.941)">
                                            <g id="그룹_6832">
                                                <path id="패스_16917" d="M371.427 284.508a1.355 1.355 0 1 1-1.355-1.354 1.355 1.355 0 0 1 1.355 1.354z" class="cls-47" transform="translate(-368.717 -283.154)"/>
                                                <path id="패스_16918" d="M379.458 286.252a1.355 1.355 0 1 1-1.358-1.352 1.354 1.354 0 0 1 1.358 1.352z" class="cls-47" transform="translate(-371.979 -283.863)"/>
                                                <path id="패스_16919" d="M387.49 288a1.355 1.355 0 1 1-1.355-1.354A1.355 1.355 0 0 1 387.49 288z" class="cls-47" transform="translate(-375.241 -284.573)"/>
                                                <path id="패스_16920" d="M397.806 288.534a1.355 1.355 0 1 1-1.355-1.354 1.354 1.354 0 0 1 1.355 1.354z" class="cls-47" transform="translate(-379.43 -284.791)"/>
                                                <path id="패스_16921" d="M408.124 289.072a1.355 1.355 0 1 1-1.355-1.354 1.354 1.354 0 0 1 1.355 1.354z" class="cls-47" transform="translate(-383.62 -285.01)"/>
                                                <path id="패스_16922" d="M419.6 288.534a1.355 1.355 0 1 1-1.355-1.354 1.354 1.354 0 0 1 1.355 1.354z" class="cls-47" transform="translate(-388.283 -284.791)"/>
                                                <path id="패스_16923" d="M431.083 288a1.355 1.355 0 1 1-1.355-1.354 1.355 1.355 0 0 1 1.355 1.354z" class="cls-47" transform="translate(-392.945 -284.573)"/>
                                                <path id="패스_16924" d="M439.608 286.252a1.355 1.355 0 1 1-1.355-1.354 1.354 1.354 0 0 1 1.355 1.354z" class="cls-47" transform="translate(-396.407 -283.863)"/>
                                                <path id="패스_16925" d="M448.134 284.508a1.355 1.355 0 1 1-1.355-1.354 1.355 1.355 0 0 1 1.355 1.354z" class="cls-47" transform="translate(-399.87 -283.154)"/>
                                            </g>
                                        </g>
                                    </g>
                                </g>
                                <path id="패스_16926" d="M402.009 265.275l3.9-5.973 3.9 5.973-3.9 5.973z" class="cls-28" transform="translate(-369.741 -232.327)"/>
                                <path id="패스_16927" d="M402.856 265.8l3.4-5.2 3.4 5.2-3.4 5.2z" class="cls-30" transform="translate(-370.085 -232.855)"/>
                                <path id="패스_16928" fill="#a7ffd1" d="M403.419 266.5l2.728-4.179v8.358z" transform="translate(-370.314 -233.556)"/>
                            </g>
                            <path id="패스_19677" d="M-3959.68 4445.142c-7.689-3.805-1.306-13.952 6.586-10.461a12.721 12.721 0 0 1 2.354 1.38c8.016 5.881 24.9 1.869 25.475-7.724 0 0-1.709 17.313-21.207 15.459 0 0 16.332 1.077 21.062-3.8 0 0-9.1 12.273-31.2 6.38a20.978 20.978 0 0 1-3.07-1.234z" class="cls-49" transform="translate(4045.469 -4353.878)"/>
                            <path id="패스_19678" d="M-3988.232 4445.323c6.917-3.421 1.175-12.547-5.924-9.408a11.313 11.313 0 0 0-2.118 1.24c-7.21 5.29-22.4 1.682-22.915-6.947 0 0 1.538 15.572 19.077 13.9 0 0-14.691.969-18.946-3.418 0 0 8.186 11.041 28.069 5.74a18.737 18.737 0 0 0 2.757-1.107z" class="cls-49" transform="translate(4068.265 -4354.641)"/>
                            <path id="패스_19679" d="M-4023.915 4391.127l-1.845 5.81s26.737-34.066 84.612.383c0 0-29.463-36.017-81.925-9.552" class="cls-20" transform="translate(4070.938 -4333.401)"/>
                            <path id="패스_19680" d="M-4022.651 4360.442s27.258-28.943 82.768 6.194l-17.812-62.394c-19.459-5-40.363 2.613-49.458 18.086-5.674 9.656-12.618 25.505-15.498 38.114z" class="cls-40" transform="translate(4069.674 -4302.716)"/>
                            <path id="패스_19681" d="M-3913.152 4305.292s14.4 7.227 14.4 8.672c0 1.175 2.249 10.447 3.385 14.115a2.973 2.973 0 0 0 1.808 1.935l3.9 1.41a2.993 2.993 0 0 1 1.869 2.16l1.038 4.473a2.921 2.921 0 0 0 2.8 2.325h1.73a2.8 2.8 0 0 0 1.9-.752l5.431-5.018-4.3 9.737a2.879 2.879 0 0 1-2.615 1.76h-4.184a2.874 2.874 0 0 1-2.583-1.69l-2.667-5.669a2.922 2.922 0 0 0-1.788-1.574l-4.292-1.3a2.961 2.961 0 0 1-1.928-1.926l-3.637-11a3 3 0 0 0-1.393-1.7l-5.878-3.232z" class="cls-41" transform="translate(4025.131 -4303.766)"/>
                            <path id="패스_19682" d="M-4016.616 4372.525s31.924-17.775 75.951 6.637l-1.528-5.35s-36.388-22.778-72.637-6.8z" class="cls-42" transform="translate(4067.218 -4326.587)"/>
                            <path id="패스_19683" d="M-3919.175 4582.556l-1.194-2.076c-7.419 2.331-18.137 1.181-18.137 1.181v1.733s-1.3 11.168 11.181 11.394 8.15-12.232 8.15-12.232z" class="cls-20" transform="translate(4035.46 -4415.842)"/>
                            <path id="패스_19684" d="M-3936.5 4584.255s-1.262 11.168 10.842 11.394 7.9-12.233 7.9-12.233z" class="cls-44" transform="translate(4034.642 -4417.038)"/>
                            <path id="패스_19685" d="M-3936.47 4581.1s10.393 1.149 17.587-1.182l1.157 2.075s-9.636 2.667-18.744.839z" class="cls-42" transform="translate(4034.616 -4415.612)"/>
                            <path id="패스_19686" d="M-4004.137 4578.09l1.235-1.583c5.632 2.446 14.374 2.337 14.374 2.337l-.233 1.4s-.459 9.107-10.491 8.336-4.885-10.49-4.885-10.49z" class="cls-20" transform="translate(4062.679 -4414.225)"/>
                            <path id="패스_19687" d="M-3989.26 4578.628s-.5 9.3-10.5 8.536-3.953-11.346-3.953-11.346z" class="cls-44" transform="translate(4062.707 -4413.944)"/>
                            <path id="패스_19688" d="M-3987.883 4576.283s-9.331.1-14.552-2.719l-.292 1.745a31.113 31.113 0 0 0 14.605 2.4z" class="cls-42" transform="translate(4061.568 -4413.025)"/>
                            <path id="패스_19689" fill="#789b2c" d="M-3948.521 4632.974s.4.033 1.788-8.04c0 0 1.043 7.812 5.427 9.06 0 0 .247.638-3.607.638 0 0-4.716.343-3.608-1.658z" transform="translate(4039.587 -4433.948)"/>
                            <g id="그룹_7105" transform="translate(96.861 61.263)">
                                <path id="패스_19690" d="M-3935.88 4418.59a3.716 3.716 0 0 1-3.847-3.548l-.4-4.337a4.081 4.081 0 0 1 3.343-4.612 3.842 3.842 0 0 1 4 3.9l.23 4.4a3.874 3.874 0 0 1-3.326 4.197z" class="cls-51" transform="translate(3940.153 -4406.075)"/>
                            </g>
                            <g id="그룹_7106" transform="translate(60.81 62.946)">
                                <path id="패스_19691" d="M3.862 12.18A3.61 3.61 0 0 1 .249 8.6L.008 4.371A3.97 3.97 0 0 1 3.417.007a3.739 3.739 0 0 1 3.752 3.929l.068 4.284a3.764 3.764 0 0 1-3.375 3.96z" class="cls-51"/>
                            </g>
                            <path id="패스_19673" d="M-3998.956 4518.467s1.454-4.511-.057-6.737-2.751-3.836-5.318-4.314-4.412-3.046-4.921-2.548-2.229 1.9 2.025 4.044c0 0 2.01.574 1.183 1.278-.669.57-3.318-.134-6.886-.491-4.871-.487-4.071.254-3.491.9s5.821 1.664 7.225 2.376c1.094.555-8.183-.6-8.418.555-.389 1.9 9.591 1.892 8.66 2.467s-7.094.551-7.514 1.25c-1.289 2.148 8.813.915 8.8 1.524-.007.47-4.671 1.111-4.824 2.143s2.233.64 3.678.386c1.692-.3 2.428-.574 4.052-.778s4.273-.285 5.806-2.055z" class="cls-39" transform="translate(4067.629 -4385.022)"/>
                        </g>
                    </g>
                </g>
            </g>
            <path id="사각형_2635" fill="none" d="M0 0H447V369H0z" transform="translate(-.351 233.927)"/>
            <g id="freepik--Floor--inject-2" transform="translate(23.95 574.14)">
                <path id="패스_16644" fill="#e7c5ec" d="M406.385 449.035c0 .482-89.294.9-199.419.9s-199.436-.413-199.436-.9 89.277-.9 199.436-.9 199.419.384 199.419.9z" transform="translate(-7.53 -448.14)"/>
            </g>
        </g>
    </g>
</svg>
