<svg xmlns="http://www.w3.org/2000/svg" width="141.076" height="39.869" viewBox="0 0 141.076 39.869">
    <defs>
        <style>
            .cls-1{isolation:isolate}
        </style>
    </defs>
    <g id="logo" transform="translate(-66 -69.002)">
        <g id="그룹_1557" transform="translate(66 69.002)">
            <g id="그룹_799">
                <path id="패스_550" d="M309.674 261.159v-.009c-.005-.077-.012-.152-.018-.229s-.012-.161-.02-.241v-.019q-.06-.65-.161-1.288H304.7a1.233 1.233 0 0 0-1.114.693l-1.61 3.266-1.918-8.112a1.242 1.242 0 0 0-2.433.078l-1.465 8.62-1.495-12.97a1.227 1.227 0 0 0-1.233-1.1 1.227 1.227 0 0 0-1.233 1.1l-2.721 23.262a.893.893 0 0 0 .783.99.93.93 0 0 0 .105.006.893.893 0 0 0 .885-.789l2.177-18.611 1.4 12.109a1.242 1.242 0 0 0 2.458.066l1.656-9.741 1.65 6.979a1.242 1.242 0 0 0 2.322.263l2.129-4.32h2.378c.035.451.054.907.054 1.368a17.688 17.688 0 0 1-34.753 4.652H270.4a19.937 19.937 0 0 0 39.322-4.652q0-.693-.048-1.371z" transform="translate(-269.853 -242.592)"/>
                <path id="패스_551" d="M283.856 163.921a19.935 19.935 0 0 0-19.935 19.935c0 .46.018.916.049 1.368.006.092.014.184.022.277 0 .052.008.1.012.156q.024.264.054.526v.03c.031.267.067.533.109.8h4.769a1.234 1.234 0 0 0 1.114-.693l1.609-3.266 1.919 8.112a1.242 1.242 0 0 0 2.433-.078l1.465-8.62 1.495 12.97a1.227 1.227 0 0 0 1.233 1.1 1.227 1.227 0 0 0 1.233-1.1l2.721-23.262a.893.893 0 0 0-1.773-.207l-2.177 18.611-1.4-12.109a1.242 1.242 0 0 0-2.458-.066l-1.656 9.741-1.65-6.979a1.242 1.242 0 0 0-2.323-.263l-2.129 4.32h-2.379q-.052-.677-.052-1.368a17.688 17.688 0 0 1 34.753-4.652h2.321a19.942 19.942 0 0 0-19.379-15.283z" transform="translate(-263.921 -163.921)"/>
            </g>
        </g>
        <g id="그룹_1558" transform="translate(115.07 78.203)">
            <g id="WEMIX_SCOPE" class="cls-1">
                <g id="그룹_1556" class="cls-1">
                    <path id="패스_7330" d="M46.214 73.086h4.369v17.131a2.628 2.628 0 0 0 .628 1.905 2.337 2.337 0 0 0 1.763.646 2.211 2.211 0 0 0 1.805-.7 2.845 2.845 0 0 0 .583-1.877v-17.1h4.371v16.95a6.992 6.992 0 0 1-.351 2.262 4.415 4.415 0 0 1-1.122 1.777 5.182 5.182 0 0 1-2 1.16 9.408 9.408 0 0 1-2.972.411 7.485 7.485 0 0 1-3.218-.573A4.268 4.268 0 0 1 48.4 93.8a4.283 4.283 0 0 1-1.677 1.278 7.492 7.492 0 0 1-3.219.573 9.393 9.393 0 0 1-2.97-.411 5.2 5.2 0 0 1-2-1.16 4.412 4.412 0 0 1-1.12-1.777 6.956 6.956 0 0 1-.351-2.262V73.086h4.37v17.1a2.845 2.845 0 0 0 .584 1.877 2.209 2.209 0 0 0 1.805.7 2.339 2.339 0 0 0 1.763-.646 2.634 2.634 0 0 0 .628-1.905z" transform="translate(-37.065 -72.645)"/>
                    <path id="패스_7331" d="M57.416 73.086H69.07v2.88h-7.284v6.227h6.847v2.879h-6.847v7.255h7.575v2.879H57.416z" transform="translate(-30.465 -72.645)"/>
                    <path id="패스_7332" d="M78.157 78.188a2.635 2.635 0 0 0-.626-1.907 2.343 2.343 0 0 0-1.763-.645 2.2 2.2 0 0 0-1.805.7 2.848 2.848 0 0 0-.584 1.877v17.1h-4.37V78.367a6.99 6.99 0 0 1 .35-2.26 4.415 4.415 0 0 1 1.122-1.777 5.185 5.185 0 0 1 2-1.16 9.4 9.4 0 0 1 2.972-.413 7.474 7.474 0 0 1 3.219.574 4.277 4.277 0 0 1 1.675 1.278 4.273 4.273 0 0 1 1.677-1.278 7.463 7.463 0 0 1 3.218-.574 9.4 9.4 0 0 1 2.972.413 5.175 5.175 0 0 1 2 1.16 4.415 4.415 0 0 1 1.122 1.777 6.99 6.99 0 0 1 .35 2.26v16.95h-4.37v-17.1a2.847 2.847 0 0 0-.583-1.877 2.208 2.208 0 0 0-1.806-.7 2.343 2.343 0 0 0-1.763.645 2.635 2.635 0 0 0-.626 1.907v17.125h-4.37z" transform="translate(-26.706 -72.756)"/>
                    <path id="패스_7333" d="M93.73 95.206h-4.371v-22.12h4.371z" transform="translate(-20.107 -72.645)"/>
                    <path id="패스_7334" d="M95.173 73.086h4.4l3.059 6.875 3.03-6.875h4.428l-5.273 10.929 5.477 11.192h-4.545l-3.117-7.314-3.117 7.314h-4.546l5.477-11.192z" transform="translate(-18.288 -72.645)"/>
                </g>
            </g>
        </g>
    </g>
</svg>
